<svg width="32" height="32" viewBox="0 0 32 32" fill="none" xmlns="http://www.w3.org/2000/svg">
<rect x="1" y="-1" width="30" height="30" rx="15" transform="matrix(1 -8.74228e-08 -8.74228e-08 -1 2.71011e-06 30)" stroke="#111116" stroke-width="2"/>
<path d="M17.0313 9.0625C17.3438 9.375 17.3125 9.84375 17.0313 10.1563L13.25 13.75L22.25 13.75C22.6563 13.75 23 14.0625 23 14.5L23 15.5C23 15.9063 22.6563 16.25 22.25 16.25L13.25 16.25L17.0313 19.8125C17.3125 20.125 17.3438 20.5938 17.0313 20.9063L16.3438 21.5938C16.0625 21.875 15.5625 21.875 15.2813 21.5938L9.21875 15.5C8.90625 15.2188 8.90625 14.75 9.21875 14.4688L15.2813 8.375C15.5625 8.09375 16.0313 8.09375 16.3438 8.375L17.0313 9.0625Z" fill="#111116"/>
</svg>
