<svg width="15" height="14" viewBox="0 0 15 14" fill="none" xmlns="http://www.w3.org/2000/svg">
<path d="M8.125 0.968749C8.4375 1.28125 8.40625 1.75 8.125 2.0625L4.34375 5.65625L13.3437 5.65625C13.75 5.65625 14.0937 5.96875 14.0937 6.40625L14.0937 7.40625C14.0937 7.8125 13.75 8.15625 13.3437 8.15625L4.34375 8.15625L8.125 11.7187C8.40625 12.0312 8.4375 12.5 8.125 12.8125L7.4375 13.5C7.15625 13.7812 6.65625 13.7812 6.375 13.5L0.312499 7.40625C-7.67681e-07 7.125 -8.08661e-07 6.65625 0.312499 6.375L6.375 0.281249C6.65625 -5.73712e-07 7.125 -6.14691e-07 7.4375 0.281249L8.125 0.968749Z" fill="#111116"/>
</svg>
