<svg width="15" height="14" viewBox="0 0 15 14" fill="none" xmlns="http://www.w3.org/2000/svg">
<path d="M5.9375 12.8125C5.625 12.5 5.65625 12.0312 5.9375 11.7187L9.71875 8.15625L0.749999 8.15625C0.312499 8.15625 -7.07578e-07 7.8125 -7.43094e-07 7.40625L-8.30516e-07 6.40625C-8.68764e-07 5.96875 0.312499 5.65625 0.749999 5.65625L9.71875 5.65625L5.9375 2.0625C5.65625 1.75 5.65625 1.28125 5.9375 0.968749L6.625 0.281249C6.9375 -6.06496e-07 7.40625 -6.47475e-07 7.6875 0.281249L13.7812 6.375C14.0625 6.65625 14.0625 7.125 13.7812 7.4375L7.6875 13.5C7.40625 13.7812 6.9375 13.7812 6.625 13.5L5.9375 12.8125Z" fill="white"/>
</svg>
