<svg width="260" height="87" viewBox="0 0 260 87" fill="none" xmlns="http://www.w3.org/2000/svg">
<path d="M191.646 44.5723C191.518 45.0858 191.261 45.471 191.004 45.471L190.876 45.5994C189.977 46.1129 188.95 46.498 187.923 46.8832L187.538 47.0116C187.153 47.2683 186.511 47.525 186.126 47.7818C185.612 48.0386 184.585 48.4237 184.072 48.6805C183.687 48.8088 182.788 49.5791 182.531 49.5791C182.274 49.5791 181.504 50.221 180.734 50.4778C180.092 50.7345 178.423 51.7616 178.166 51.7616C177.91 51.7616 177.396 52.1467 177.268 52.2751C177.139 52.4034 176.369 52.7886 176.241 52.917C175.984 53.0453 175.214 53.4305 174.828 53.5589C174.572 53.8156 173.288 54.4575 172.774 54.7143C172.261 54.9711 170.592 55.6129 170.335 55.8697H170.207L169.565 56.1264C169.051 56.5116 167.896 57.1535 166.997 57.667L166.227 58.0521C165.842 58.3089 165.457 58.4373 165.072 58.5657L164.301 58.8224C163.531 59.3359 162.761 59.7211 162.504 59.7211C162.247 59.7211 161.734 60.2346 161.605 60.363C161.477 60.4913 160.707 60.8765 160.45 60.8765C160.193 60.8765 159.295 61.1332 158.653 61.1332V61.7751C158.653 61.9035 158.139 62.0319 157.754 62.1603H157.626C157.369 62.1603 156.855 62.417 156.47 62.8021C156.085 63.1873 154.288 63.8292 153.903 64.0859C153.518 64.3427 152.876 65.113 152.747 64.9846C152.747 64.8562 152.491 64.8562 152.362 65.113C152.234 65.3697 151.335 65.6265 151.335 65.6265C151.335 65.7549 151.207 65.8832 150.95 65.7548H150.693C150.565 65.7548 150.436 65.7548 150.436 65.7548C150.18 66.0116 150.051 66.3967 149.795 66.3967L149.409 66.5251C149.024 66.6535 148.382 67.0387 147.997 67.2954C147.612 67.5522 145.686 68.5792 144.788 69.2211L144.018 69.7346C143.889 69.863 143.632 69.9914 143.504 69.9914C143.247 69.9914 142.862 69.9914 142.605 70.1198C142.477 70.1198 142.477 70.5049 142.349 70.6333L142.22 70.7617C141.963 70.89 141.707 71.1468 141.578 71.2752H141.45H141.065C140.808 71.5319 140.551 71.9171 140.423 72.0454C140.295 72.1738 139.396 72.0454 139.139 72.0454V72.1738L139.011 72.6873C138.497 72.8157 137.984 73.0725 137.855 73.2008C137.727 73.3292 137.085 73.4576 136.7 73.586L136.572 73.9711L136.443 74.3562C135.93 74.613 135.416 74.8698 135.416 74.8698C135.416 74.8698 135.159 74.7414 135.031 74.7414C134.903 74.613 134.389 75.1265 134.261 75.3833C134.132 75.5116 132.977 76.1536 132.463 76.4103L131.95 76.7954L131.436 77.1806C130.666 77.4374 129.896 77.8225 129.639 78.0792C129.382 78.336 128.227 78.5927 128.227 78.5927C128.227 78.7211 127.2 79.363 126.301 79.8765L125.531 80.1333C125.274 80.2617 124.889 80.1333 124.761 80.2617L124.376 80.6468C123.862 81.0319 123.092 81.1603 122.707 80.9036L122.578 81.4171L122.45 81.6739C122.065 81.9306 121.68 82.059 121.423 82.1874C121.294 82.1874 120.139 82.5725 119.497 82.7009C118.855 82.9576 116.801 83.9847 116.416 84.2414L116.031 84.3698L114.49 84.7549C112.821 85.3968 111.024 86.0387 110.382 86.1671C109.74 86.2955 108.2 86.6806 108.2 86.6806C108.071 86.6806 107.815 86.5522 107.558 86.6806C107.301 86.6806 106.659 86.6806 106.659 86.5522C106.659 86.4239 106.274 86.0387 106.017 86.1671C105.761 86.2955 104.99 86.4239 105.119 86.1671C105.119 85.9104 104.22 86.2955 103.835 86.1671C103.45 86.0387 102.551 85.9103 102.423 86.0387H102.294L101.267 86.1671C100.112 86.1671 99.2133 86.2955 99.2133 86.1671C99.2133 86.1671 98.9566 85.9103 98.6998 85.782C98.443 85.6536 97.1592 85.5252 96.389 85.0117V84.3698C96.389 84.2414 96.7741 82.9576 96.7741 82.9576L96.9025 82.8293C97.0309 82.7009 97.1592 82.3157 97.1592 82.059C97.1592 81.8022 97.1592 80.9036 97.0309 80.7752C96.9025 80.6468 96.1322 80.6468 96.1322 80.2617C96.1322 79.8765 95.7471 78.7211 95.3619 78.5927C94.9768 78.4644 94.2065 77.4373 93.5646 77.3089L93.9498 76.6671L94.0781 76.2819C93.9498 75.8968 93.8214 74.9981 93.693 74.4846C93.5646 73.9711 92.4092 71.5319 91.8957 70.3765L91.3822 69.3495V69.2211C91.5106 69.0927 91.639 68.5792 91.639 68.0657C91.7673 67.5522 91.2538 66.3967 91.2538 66.3967C91.2538 66.3967 91.3822 66.14 91.5106 66.0116C91.6389 65.7549 91.6389 65.113 91.3822 65.113C91.1254 64.9846 90.3552 65.8832 89.8416 66.14C89.3281 66.3968 87.1457 67.6806 86.1187 68.1941C85.0916 68.836 82.1389 70.6333 81.8822 70.6333C81.6254 70.7616 80.3416 71.4035 79.5713 71.7887C78.8011 72.1738 76.6186 73.586 76.2335 73.7144C75.8484 73.8427 74.4362 74.7414 74.051 74.9981C73.6659 75.1265 72.2537 75.7684 71.997 75.8968C71.7402 76.0252 70.8416 76.5387 70.3281 76.6671C69.8145 76.9238 68.1456 77.4373 67.6321 77.6941C67.1186 77.8225 65.578 78.4644 65.1929 78.5927C64.9361 78.7211 63.3956 78.336 63.2672 78.336C63.1388 78.336 62.7537 78.4644 63.0105 78.4644C63.1388 78.4644 63.524 78.8495 63.2672 78.9779H63.1388L62.4969 79.1063C61.7267 79.2347 61.0848 79.2346 60.9564 79.2346C60.828 79.2346 60.1861 78.9779 59.6726 78.8495C59.1591 78.7211 57.7469 78.336 57.7469 77.6941L57.105 77.3089L56.7199 77.0522C56.4631 76.5387 56.3348 76.1535 56.4631 76.2819C56.5915 76.2819 57.105 76.4103 57.2334 76.1535C57.2334 76.0252 57.105 75.64 56.9767 75.64L56.5915 75.8968C56.2064 75.7684 55.4361 75.2549 54.9226 74.7414L54.5375 74.2279L54.4091 74.0995C54.5375 73.7143 54.4091 73.4576 54.1523 73.4576C53.8956 73.4576 54.2807 72.9441 54.2807 72.8157C54.2807 72.8157 53.7672 72.4305 53.2537 72.1738L53.382 71.6603C53.382 71.2751 53.2537 71.0184 52.9969 70.7617L52.7402 70.6333C52.355 70.3765 52.4834 69.9914 52.7402 69.9914C53.1253 69.863 53.8956 69.4779 54.0239 69.2211C54.1523 68.9643 54.7942 68.7076 55.1793 68.7076L55.4361 68.5792C55.8212 68.4508 55.9496 68.0657 56.3348 67.9373L56.5915 67.8089C56.8483 67.6805 57.6185 67.5522 58.2604 67.4238V66.5251V66.3967C58.2604 66.2684 58.3888 66.14 58.6456 66.2684C58.9023 66.3968 59.4159 66.0116 59.4159 65.6265H60.3145C60.4429 65.6265 60.6996 65.3697 60.6996 65.2413V65.113C60.5713 64.9846 60.4429 64.8562 60.3145 64.9846C60.1861 64.9846 59.9294 64.9846 60.0577 64.5994L60.1861 64.3427C60.1861 64.2143 60.3145 64.0859 60.6996 64.2143L60.9564 64.3427C61.3415 64.3427 62.1118 63.9576 62.7537 63.5724V62.9305V62.8021C62.7537 62.6738 62.8821 62.5454 63.0105 62.417C63.1388 62.2886 63.524 62.2886 63.524 62.417L63.6524 62.5454C63.6524 62.6738 63.7807 62.8021 63.9091 62.8021C64.0375 62.8021 64.2943 62.6738 64.2943 62.6738L64.4226 62.2886C64.8078 61.9035 65.0645 61.6467 65.0645 61.5184V61.39V61.0049C65.578 60.7481 65.9632 60.6197 66.0916 60.4913C66.2199 60.4913 66.7335 60.363 66.8618 60.363C66.9902 60.363 66.9902 59.9778 66.8618 59.8494C66.7335 59.8494 66.3483 59.2075 66.6051 59.0792C66.8618 58.8224 68.0172 58.9508 68.1456 58.694C68.274 58.4372 69.1727 58.0521 69.4294 57.7954L69.6862 57.667C70.0713 57.4102 70.0713 57.2819 69.6862 57.0251C69.6862 57.0251 69.8145 56.64 69.9429 56.64L70.3281 56.5116C70.8416 56.3832 71.2267 56.5116 71.3551 56.64C71.3551 56.7684 71.6118 56.8967 71.8686 56.3832L71.4835 55.9981L71.2267 55.7413C71.6118 55.7413 72.3821 55.4846 72.8956 55.2278L73.024 54.7143V54.5859C72.7673 54.3292 72.6389 54.0724 72.7673 54.0724C72.8956 53.944 73.2808 53.5589 73.024 53.5589H72.8956L72.3821 53.8156C71.7402 54.2008 71.0983 54.5859 70.97 54.8426C70.8416 55.0994 69.9429 55.3562 69.9429 55.2278C69.9429 55.0994 69.6862 54.971 69.5578 55.0994C69.4294 55.2278 69.0443 55.6129 68.9159 55.6129C68.7875 55.6129 68.9159 55.7413 69.1727 56.1264C69.4294 56.5116 68.0172 56.7684 68.0172 56.64C68.0172 56.5116 68.1456 56.1264 68.1456 56.1264C68.0172 56.1264 67.1186 56.64 66.2199 57.1535C65.1929 57.667 61.855 59.5927 60.9564 60.2346L60.0577 60.7481L59.2875 61.1332C58.3888 61.6468 57.105 62.417 56.4631 62.8021L55.9496 63.3157L55.4361 63.8292C54.6658 64.2143 53.7672 64.7278 53.2537 64.9846C52.8685 65.113 51.5847 66.0116 51.0712 66.2684C50.5577 66.5252 48.5036 67.8089 47.4766 68.3224L46.4496 68.836L45.9361 69.0927C45.4226 69.2211 44.6523 69.6062 44.2671 70.1198H43.882H42.7266C41.9563 70.6333 40.9293 71.2751 40.2874 71.5319C39.7739 71.7887 38.2333 72.8157 37.7198 72.9441C37.2063 73.0724 36.1793 74.2279 35.7941 74.4846C35.409 74.7414 33.8685 74.9981 33.6117 75.1265L33.4833 75.2549L33.0982 75.7684C32.3279 76.0252 31.4293 76.4103 30.9158 76.5387C30.4022 76.6671 29.1184 77.5657 28.7333 77.6941L28.3482 77.8225C28.2198 77.9509 27.963 77.9508 27.7063 78.0792C27.1928 78.336 26.6792 78.8495 26.1657 78.9779L25.5238 79.1063C25.0103 79.363 23.9833 79.7481 23.3414 79.8765C22.6995 80.1333 20.7738 79.8765 20.6454 80.0049C20.5171 80.1333 19.8752 80.2617 19.6184 80.2617C19.3617 80.1333 18.3346 79.7482 17.9495 79.6198C17.5643 79.4914 16.0238 80.2617 15.1251 80.5184H14.2265H13.4562C12.8143 80.2617 12.0441 79.7482 11.6589 79.363L11.7873 79.1063L11.9157 78.5927C12.0441 77.9508 12.1724 77.1806 12.3008 76.9238C12.3008 76.6671 11.4022 76.2819 11.2738 76.1535C11.1454 76.1535 10.7603 75.8968 10.5035 75.7684C10.2468 75.64 10.1184 74.8698 10.1184 74.613C10.1184 74.3563 9.98999 73.7143 9.86162 73.586L9.47647 73.7144C9.09134 73.8427 8.83458 73.7143 8.96296 73.4576L8.57783 73.2008L8.7062 72.4306C8.57782 71.917 8.06431 70.6332 7.67917 69.6062L7.16566 68.7076L7.03727 68.3224C6.78052 68.0657 6.267 67.5522 6.13863 67.2954C5.88187 67.0387 5.36836 66.0116 5.23998 65.6265L5.11159 65.2413C4.98321 64.9846 4.72646 64.7278 4.72646 64.3427V64.0859C4.4697 63.7008 4.21294 63.444 4.08457 63.3157V63.1873L4.21294 62.8021C4.21294 62.417 4.21294 61.9035 4.21294 61.6467C4.21294 61.39 4.59808 60.3629 4.85484 59.5927L5.62511 59.0792C5.75349 58.9508 5.62511 58.5657 5.75349 58.5657L6.01025 58.4373C6.39539 58.3089 6.52377 58.1805 6.52377 58.0521C6.52377 58.0521 6.52376 57.7954 6.78052 57.7954C7.03728 57.7954 7.16566 57.0251 7.29404 56.64C7.42242 56.3832 7.67917 55.8697 7.55079 55.6129L7.93593 55.4845L8.19269 55.3562C8.19269 55.2278 8.32107 54.971 8.44945 54.971H8.57783L8.96296 54.7143C8.7062 54.4575 8.83458 54.0724 9.3481 53.944C9.73323 53.8156 10.1184 52.7886 10.2467 52.5318C10.3751 52.2751 11.1454 51.7615 11.5305 51.6332L11.1454 51.3764C11.017 51.3764 11.1454 50.9913 11.2738 50.9913H12.0441C12.1724 50.4778 12.4292 49.8359 12.6859 49.4508C12.9427 49.0656 13.4562 48.0386 13.5846 48.167C13.713 48.167 14.2265 48.1669 14.4833 47.9102C14.74 47.6534 15.3819 46.8832 15.2535 46.7548C15.1251 46.6264 14.4833 46.3696 14.4833 46.498C14.4833 46.6264 13.9697 46.6264 13.8414 46.3697L13.713 46.2413L13.4562 46.1129C13.0711 46.1129 12.5576 46.2413 12.3008 46.2413C12.0441 46.2413 10.8886 45.8561 10.2467 45.8561C9.60485 45.8561 8.06431 46.2413 7.80756 46.3697C7.5508 46.498 6.78052 45.5994 7.42241 44.8291L6.65214 44.0588L6.52377 43.9304C6.65215 43.5453 6.52376 43.2885 6.39538 43.2885C6.267 43.2885 5.75349 43.1602 5.75349 43.1602C5.75349 43.1602 5.62511 42.9034 5.62511 42.6466C5.62511 42.5183 5.62511 41.8764 5.62511 41.6196C5.62511 41.3629 4.98321 40.9777 4.98321 40.721L4.85484 40.5926C4.59808 40.4642 4.21295 40.4642 3.95619 40.3358L3.69943 40.2075C3.44267 40.0791 3.18591 39.5656 3.18591 39.0521C3.18591 38.5385 2.15888 37.3831 2.15888 37.3831L2.92915 36.6129C2.15888 36.2277 1.26023 35.5858 0.746717 35.2007V34.6872L0.618331 34.1737C0.618331 33.5318 0.618333 33.0182 0.489954 33.1466C0.361575 33.1466 0.104823 33.1466 0.104823 32.8899H0.2332C0.489958 32.7615 1.38861 32.7615 0.2332 32.5047C0.2332 32.5047 0.104823 32.5047 0.104823 32.3763C-0.0235558 31.6061 -0.151941 30.7074 0.489954 30.0655C0.618333 29.9372 0.87509 29.8088 1.13185 29.6804C1.38861 29.552 1.77374 29.1669 1.64537 29.1669C1.13185 28.525 2.03051 28.9101 2.03051 28.7817C2.15889 28.525 2.28726 28.1398 2.41564 27.8831C2.80077 27.4979 3.31429 27.1128 3.8278 26.8561L4.08457 26.5993C4.21294 26.3425 4.85484 25.5723 5.49673 24.9304L6.52377 25.0588H6.65214C6.78052 24.9304 7.03728 24.6736 7.16566 24.4169C7.29404 24.1601 7.93593 23.9033 8.06431 23.6466C8.19269 23.3898 9.21972 23.3898 9.47647 23.2615C9.73323 23.1331 10.2467 22.4912 10.6319 22.7479L11.017 22.3628C10.7603 22.106 10.7603 21.9777 11.017 21.9777C11.2738 21.9777 11.9157 21.7209 11.7873 21.4641L11.9157 21.3358L12.1724 20.9506C12.6859 20.9506 13.0711 20.8223 13.0711 20.6939C13.0711 20.5655 13.5846 20.1804 13.8414 20.052C14.0981 19.9236 15.2535 19.6668 15.6387 19.5385C16.0238 19.4101 16.6657 18.7682 16.9225 18.7682C17.0508 18.7682 17.6927 18.6398 17.6927 18.383V18.2547V18.1263C17.8211 17.9979 18.3346 17.9979 18.9765 17.8695V17.2276C19.49 17.0993 20.3887 16.8425 20.7738 16.5857L21.159 16.329L21.4157 16.2006C21.8008 16.2006 22.3144 16.0722 22.5711 15.9439L22.8279 15.8155C23.213 15.6871 23.4698 15.5587 23.8549 15.4303C24.1117 15.302 24.3684 15.0452 24.6252 14.9168C24.7536 14.7884 25.0103 14.7885 25.2671 14.7885C25.909 14.6601 26.5509 14.6601 26.8076 14.0182C26.936 13.7614 27.1928 13.633 27.5779 13.3763C27.7063 13.3763 27.8347 13.7614 28.2198 13.3763L28.4766 13.1195C28.8617 12.8628 29.3752 12.8628 29.7603 13.1195L30.0171 12.7344C30.1455 12.606 30.1455 12.4776 30.2739 12.4776V12.3492C30.2739 12.2209 30.659 12.2209 30.9158 12.2209C31.1725 12.2209 31.9428 11.8357 32.1995 11.8357C32.4563 11.8357 32.9698 11.4506 33.0982 11.4506L33.3549 11.3222C33.4833 11.3222 33.6117 11.3222 33.6117 11.1938L34.2536 10.2952C35.5374 9.78168 36.6928 9.26816 36.9496 9.26816C37.0779 9.13978 37.8482 9.0114 38.2333 8.88302C38.6185 8.75464 39.6455 8.11274 39.7739 8.24112C39.9023 8.3695 40.6725 8.49788 40.9293 8.24112L41.3144 8.11274L41.6996 7.98437C42.2131 7.98437 42.5982 7.98436 42.5982 7.85598C42.4698 7.7276 42.5982 7.34247 43.1117 7.34247L43.3685 7.21409L43.6252 7.08572C43.7536 7.2141 44.3955 7.08571 44.7807 6.82895L45.1658 6.57219L45.2942 6.44383C45.5509 6.44383 45.6793 6.5722 45.5509 6.70058L45.4226 6.82895C45.4226 6.82895 45.5509 6.95733 45.6793 6.95733H45.8077C45.9361 6.95733 46.1928 6.57219 46.3212 6.18705L46.8347 6.05869C47.7334 5.80193 48.7604 5.80193 49.5307 5.16004C49.5307 5.16004 49.7874 5.16004 49.9158 5.16004H50.301C50.6861 5.16004 51.1996 5.16003 51.4564 5.03165C51.5847 4.90327 52.4834 4.64652 52.8685 4.51814C53.2537 4.38976 54.4091 4.00462 54.5375 4.00462C54.6658 4.13299 55.1793 4.38975 55.1793 4.26137C55.1793 4.13299 55.6929 4.00462 56.078 4.00462C56.4631 4.00462 57.8753 3.61949 58.1321 3.49111C58.5172 3.36273 59.4159 3.87625 59.5442 3.87625C59.6726 3.87625 60.4429 4.26137 61.0848 4.64651C61.7267 5.03165 64.1659 4.38975 64.9361 4.26137L65.7064 4.38976L66.3483 4.51814C67.1186 4.38976 67.8889 4.26138 68.1456 4.133C68.4024 4.133 69.0443 4.38975 69.301 4.26137C69.5578 4.13299 70.0713 4.133 70.0713 4.38976C70.0713 4.64651 70.97 4.38975 71.0983 4.26137H71.2267L71.7402 4.51814C72.2537 4.90328 72.8956 5.41679 73.1524 5.67355C73.4091 5.9303 74.3078 6.31544 74.1794 6.31544C74.051 6.44382 74.1794 6.82895 74.4362 7.21409L74.6929 7.59923L75.2065 8.36951C76.1051 9.0114 76.6186 9.52491 76.4902 9.78167C76.3619 9.91004 75.9767 10.4236 76.2335 10.6803L76.4902 10.8087H76.6186C76.8754 10.5519 77.2605 10.5519 77.5173 10.6803L77.774 10.9371C77.9024 11.0655 77.774 11.1938 77.774 11.3222C77.774 11.579 76.8754 11.1938 77.3889 11.7073C77.6457 12.0925 77.3889 12.2209 77.2605 12.3492L77.1321 12.606C77.0038 12.9911 77.1321 13.3763 77.3889 13.5047C77.6457 13.633 77.774 14.5317 77.774 14.6601C77.9024 14.7884 78.5443 15.6871 79.1862 16.5857L79.0578 17.4844C78.9294 17.9979 79.0578 18.5114 79.6997 18.8966L79.9565 19.0249C80.0849 19.2817 80.2132 19.6668 80.3416 19.7952C80.47 20.052 81.3686 20.3087 81.7538 20.4371V20.5655C81.8821 21.079 82.1389 21.079 82.524 20.8223C82.524 20.8223 82.7808 20.8222 82.7808 20.9506L82.9092 21.079C83.0376 21.2074 83.1659 21.4641 83.0376 21.4641C82.9092 21.4641 82.6524 21.8493 82.7808 22.106L82.9092 22.2344L83.0376 22.4912C83.1659 22.7479 83.166 23.0047 83.2943 23.1331C83.2943 23.2615 82.9092 24.0317 82.524 24.9304L81.6254 25.5723L81.2403 25.829C80.9835 26.4709 80.7267 27.1128 80.5984 27.2412C80.47 27.4979 79.4429 28.1398 79.1862 28.6534L78.8011 28.7817C78.0308 29.0385 78.8011 29.1669 78.6727 29.2953C78.4159 29.4236 78.2875 29.6804 78.0308 29.8088L77.5173 30.1939C76.8754 30.5791 76.2335 31.0926 76.1051 31.3493C75.9767 31.6061 75.0781 32.1196 75.2065 32.3763C75.3348 32.6331 74.1794 33.0182 73.6659 33.275L73.2808 33.5318L72.8956 33.9169C72.2537 34.4304 72.1254 34.6872 72.3821 34.6872C72.7673 34.6872 74.051 34.0453 75.0781 33.5318L76.1051 33.275L76.6186 33.1466C76.6186 32.7615 76.6186 32.248 76.6186 32.248C76.747 32.248 76.8754 32.248 77.0038 32.248L77.1321 32.3763C77.2605 32.6331 77.5173 32.6331 77.774 32.3763L77.9024 32.248C78.0308 32.1196 78.1592 31.9912 78.1592 31.9912L79.0578 32.1196C79.443 31.6061 79.9565 30.9642 80.2132 30.7074C80.3416 30.4507 81.7538 30.3223 82.1389 30.0655L82.6524 29.9371C82.9092 29.9371 83.166 29.8088 83.2943 29.552C83.166 29.2953 83.166 29.1669 83.2943 29.1669C83.4227 29.1669 84.0646 29.0385 84.193 28.9101C84.3214 28.7818 84.7065 28.2682 84.8349 28.0115L85.3484 28.1399C85.6051 28.1399 86.1187 27.7547 86.3754 27.498L86.6322 27.2412C86.8889 27.1128 87.2741 26.8561 87.2741 26.8561C87.4024 26.8561 87.6592 26.8561 87.916 26.7277C88.1727 26.7277 89.0714 26.2142 89.3281 25.9574L89.5849 25.7007C89.8416 25.3155 90.0984 26.2142 90.2268 25.7007C90.3552 25.0588 90.7403 25.7007 90.8687 25.5723L91.1254 25.3155C91.3822 25.4439 91.5106 25.4439 91.5106 25.1872L91.639 25.0588L91.7673 24.9304C92.0241 24.9304 92.5376 24.802 92.9227 24.802C93.3079 24.802 94.3349 24.0317 94.5917 23.775L94.8484 23.5182C95.1052 23.6466 95.3619 23.6466 95.3619 23.5182C95.3619 23.3898 95.6187 22.8763 95.7471 23.0047C95.8755 23.1331 96.2606 23.3898 96.5173 23.2615C96.7741 23.1331 97.1592 22.8763 97.2876 22.4912H97.8011H98.1863C98.5714 22.3628 99.0849 21.9777 99.2133 21.7209L99.5984 21.5925C99.8552 21.5925 99.8552 21.3358 100.112 21.5925L100.24 21.7209C100.497 21.7209 100.882 21.4642 101.139 21.2074L101.652 21.079L102.038 20.9506C102.423 20.5655 103.321 20.1804 103.835 19.9236C104.348 19.6669 106.403 19.2817 107.044 19.1533L107.43 18.7682L107.943 18.383C108.713 18.2547 109.355 18.3831 109.484 18.6398C109.612 18.8966 109.997 19.5385 109.997 19.5385C109.997 19.5385 110.126 19.4101 110.126 19.2817C110.126 19.1533 109.869 18.5114 109.869 18.2547L110.639 17.8695C111.281 17.4844 112.308 17.7412 112.565 16.9709C112.565 16.9709 112.821 16.9709 112.95 16.9709C113.463 17.356 113.463 17.6128 112.693 17.9979C112.693 17.9979 113.335 17.9979 114.105 17.8695L114.49 17.7412C114.876 17.6128 115.261 17.6128 115.646 17.6128L116.288 17.7412C116.416 17.356 116.544 17.0993 116.673 17.2276C116.801 17.356 117.186 17.7412 117.186 17.6128C117.186 17.4844 117.315 16.8425 117.315 16.2006L118.342 15.4303L118.47 15.302C118.599 15.1736 118.855 15.302 118.984 15.5587C119.112 15.8155 119.882 16.329 120.396 16.0722C120.909 15.8155 122.45 15.6871 122.45 15.4303C122.45 15.1736 122.321 14.7884 122.193 14.9168C122.065 15.1736 121.166 15.1736 121.166 15.0452V14.9168C121.166 14.7884 120.909 14.2749 121.68 14.6601L121.808 14.7885C122.322 14.4033 122.835 14.2749 122.963 14.5317V14.6601V14.7885C122.963 15.0452 123.092 15.1736 123.22 15.1736C123.349 15.1736 123.862 14.9168 123.99 14.6601C124.119 14.4033 124.632 13.5047 124.889 13.7614C125.146 14.0182 125.916 14.4033 126.173 14.1466L126.43 14.0182L126.815 13.8898C127.2 13.7614 127.842 13.633 128.227 13.633H128.612C129.126 13.7614 129.511 13.633 129.896 13.3763C130.024 13.2479 130.153 13.1195 130.281 13.1195L131.308 12.4776L131.565 12.3492C131.822 12.2209 132.463 12.0925 133.105 11.9641C133.747 11.8357 135.416 11.3222 135.93 11.3222C136.443 11.3222 137.855 11.1938 138.112 11.3222C138.369 11.3222 138.369 11.9641 137.984 12.0925C137.599 12.2209 137.342 13.1195 137.599 12.9911C137.727 12.8628 138.497 12.8628 138.882 13.1195L139.268 13.3763L139.653 13.633C140.166 13.7614 140.808 14.1466 141.193 14.4033L140.551 14.7885L140.423 14.9168C140.423 15.4303 140.68 15.6871 140.808 15.4303C140.936 15.1736 141.322 14.9168 141.322 15.302C141.322 15.6871 140.808 16.2006 141.193 16.2006C141.45 16.2006 142.477 16.0722 142.862 16.0722C143.247 15.9439 143.504 15.1736 143.632 15.302C143.761 15.4303 144.274 15.4303 144.531 15.302C144.788 15.0452 145.815 14.6601 146.072 14.6601C146.328 14.6601 146.713 14.1465 146.97 14.2749H147.227H147.355C147.484 14.2749 147.612 14.1466 147.612 14.0182C147.612 13.8898 147.869 13.633 148.254 13.5047C148.639 13.2479 149.923 12.8628 150.18 12.7344C150.436 12.606 150.565 11.9641 150.693 11.9641C150.693 11.9641 150.95 11.8357 151.207 11.9641L151.335 12.0925H151.464C151.464 12.2209 151.849 11.9641 152.105 11.4506L152.362 11.0655C152.491 10.9371 152.619 10.9371 152.747 10.9371L153.389 11.0655C153.903 10.6803 154.416 10.2952 154.673 10.1668H154.93H155.315C155.7 10.0384 156.085 9.91004 156.214 9.78167C156.342 9.65329 156.342 9.26815 156.599 9.13977L156.855 9.0114C157.241 8.88303 157.626 8.88302 158.011 8.88302C158.268 8.88302 157.754 8.11274 158.524 8.49788C158.524 8.49788 158.909 8.24111 159.166 8.11274C159.295 7.98436 159.423 7.85598 159.551 7.85598C159.808 7.7276 160.193 7.59922 160.578 7.47084L160.835 7.34247C161.22 7.34247 161.734 7.21409 161.991 6.95733L162.247 6.70058L162.504 6.44383C162.761 6.18707 163.146 6.05869 163.274 6.05869C163.403 6.05869 163.788 5.9303 163.659 5.67355L164.045 5.41679C164.43 5.16003 164.558 5.41678 164.943 5.54516H165.072C165.328 5.41678 165.842 5.03165 166.227 4.7749L166.612 5.16004C166.741 5.28842 166.997 5.16003 166.741 4.7749L166.612 4.64651C166.612 4.51813 167.126 4.26138 167.639 4.133H168.153C168.281 4.133 168.281 3.61948 168.795 3.61948H169.051C169.308 3.61948 169.95 3.61949 170.464 3.49111C170.977 3.36273 171.876 2.20731 172.261 2.07893C172.646 1.95055 174.058 1.6938 174.572 1.43704C174.957 1.18028 175.599 0.923519 175.727 1.0519C175.855 1.18028 176.241 1.30866 176.369 1.18028V1.0519V0.923531C176.241 0.795152 176.241 0.538382 176.497 0.410003C176.754 0.281624 177.396 0.153249 178.038 0.153249L178.551 0.0248823H178.808C179.065 -0.103497 180.092 0.281628 181.119 0.795144L182.018 1.30867L182.146 1.43704C182.274 1.56542 182.66 1.82219 183.045 1.95057C183.43 2.07894 184.457 1.82218 184.97 1.56542L185.484 1.82218C186.126 2.07894 186.639 2.3357 187.41 2.20732C187.538 2.20732 189.079 2.97759 189.335 3.10597C189.464 3.23435 189.849 3.10598 189.977 3.23435C190.234 3.36273 190.362 3.61948 190.619 3.61948C191.133 3.74785 191.004 4.00461 191.004 4.26137V4.38976C190.876 4.51814 190.619 4.90328 190.491 5.16004C190.362 5.4168 191.261 6.18706 191.133 6.31544C191.004 6.44382 190.747 6.95734 190.876 7.34247C191.004 7.72761 192.031 8.24112 191.903 8.49788C191.774 8.75463 191.518 9.39653 191.646 9.39653C191.774 9.5249 191.903 9.78167 191.903 9.91005C191.903 10.0384 191.646 10.4236 191.646 10.5519C191.518 10.6803 191.133 10.6803 191.004 10.8087V10.9371L191.261 11.3222C191.646 11.7073 191.903 11.9641 192.031 11.8357C192.031 11.8357 192.416 11.7074 192.416 11.8357C192.416 11.9641 192.288 12.4776 192.288 12.4776C192.288 12.4776 192.16 12.8628 192.288 12.9911C192.416 13.2479 192.545 14.4033 192.673 14.9168L193.058 15.4303L193.315 15.6871C193.187 16.2006 193.572 16.7141 194.085 16.8425L194.47 16.9709H194.599C194.984 17.2276 195.112 17.6128 194.984 17.7412C194.856 17.8695 194.727 18.1263 194.727 18.5114C194.727 18.7682 194.085 19.7952 193.957 20.4371H193.058H192.801C192.545 20.6939 192.673 21.079 193.058 21.3358L193.315 21.4641C193.443 21.5925 193.443 21.4641 193.572 21.079C193.7 20.9506 193.829 20.6939 193.957 20.6939C194.727 20.6939 195.112 19.6668 196.139 20.3087L197.808 19.4101H197.937C198.065 19.2817 198.322 19.2817 198.579 19.1533C198.835 19.1533 199.606 18.6398 199.734 18.5114C199.862 18.3831 201.018 18.3831 201.403 17.9979L201.788 17.7412L203.329 17.4844L203.585 17.7412C203.842 17.6128 204.356 17.2276 204.741 16.9709C205.126 16.7141 206.281 15.6871 206.41 15.302L207.052 15.6871C207.437 15.9439 208.079 15.5587 208.464 15.9439C208.72 15.8155 209.234 15.5587 209.619 15.302L210.133 15.1736C211.673 14.6601 212.058 14.4033 212.7 14.7885L213.342 15.0452C214.112 15.0452 214.626 14.7884 214.498 14.6601C214.369 14.5317 214.626 13.8898 215.139 13.633C215.653 13.3763 217.45 12.7344 217.579 12.7344L217.835 12.8628C218.092 12.9911 218.349 12.9911 218.477 12.7344C218.477 12.3492 218.862 12.3493 219.119 12.4776L220.018 12.8628C220.916 12.7344 221.687 12.3492 221.687 12.0925C221.687 11.8357 222.971 11.579 223.741 11.4506L224.383 11.1938C224.768 11.0655 225.153 10.9371 225.666 10.9371L226.052 10.8087C226.308 10.5519 226.694 10.4236 226.822 10.5519C226.95 10.6803 227.335 11.0655 227.464 11.0655L227.849 10.8087C228.234 10.5519 228.748 10.4236 229.133 10.6803L229.389 10.1668C229.389 10.0384 229.903 10.1668 230.16 10.1668H230.288C230.417 10.1668 230.802 10.0384 231.187 9.91005C231.572 9.78167 232.856 9.78167 233.498 9.91005L234.011 9.39653C234.139 9.26815 234.268 9.13977 234.525 9.39653L234.653 9.52491C234.91 9.52491 235.295 9.39654 235.552 9.26816C235.808 9.13978 237.092 9.13978 237.477 8.88302L237.606 9.0114L238.119 9.39653C238.504 9.13977 239.146 8.75463 239.66 8.49788L240.045 8.36951C240.045 8.36951 240.173 8.3695 240.302 8.49788C241.072 8.88301 241.2 8.88302 241.457 8.62626L241.842 8.24112C242.227 8.3695 242.741 8.62626 242.869 8.62626C242.998 8.62626 243.511 8.11275 243.64 7.98437H243.768C244.281 7.98437 244.025 8.3695 244.025 8.49788V8.62626C244.025 8.75464 244.667 8.49787 245.437 8.11274L246.079 7.85598C246.849 7.59922 246.592 7.72762 246.977 8.36951L247.363 9.0114C246.977 9.0114 246.849 9.13977 247.106 9.39653H247.363C247.748 9.39653 248.133 8.88302 248.261 8.88302C248.646 9.13978 249.031 9.26816 249.288 9.0114C249.673 8.75465 249.673 9.01139 249.93 9.13977H250.058C250.187 9.01139 250.187 8.75464 249.93 8.62626L250.315 8.49788C250.444 8.49788 250.7 8.62625 250.7 8.75463C250.829 9.01139 250.829 9.13978 251.085 8.88302C251.085 8.62626 251.599 8.62625 252.241 8.75463C252.883 8.88301 254.038 10.0384 253.781 10.1668C253.525 10.2952 253.396 10.8087 253.653 11.0655C253.91 11.3222 254.68 11.8357 254.937 11.7073C255.194 11.579 255.964 11.3222 255.964 11.1938C255.964 11.0655 256.349 10.8087 256.863 10.8087L256.349 11.3222L256.092 11.579C256.477 11.9641 256.991 12.3493 257.119 12.4776C257.248 12.606 256.734 13.1195 256.606 13.1195C256.477 12.9911 256.092 12.7344 256.092 12.8628C256.092 12.9911 256.092 13.1195 256.092 13.3763C256.092 13.633 257.248 14.0182 257.761 14.2749L257.248 14.7885L257.119 14.9168C257.376 15.302 257.761 15.8155 258.018 15.9439C258.275 16.0722 258.403 16.5858 258.531 16.7141C258.66 16.8425 258.275 17.356 258.146 17.4844C258.018 17.6128 258.146 17.9979 258.146 17.8695L258.275 17.7412L258.403 17.6128C258.531 17.4844 258.917 17.4844 259.045 17.6128C259.173 17.7412 259.302 18.3831 259.173 18.6398C258.917 18.8966 258.018 19.0249 257.633 19.0249C257.248 19.0249 256.221 19.1533 256.221 19.4101C256.221 19.6668 256.092 20.1804 255.836 20.052L255.964 19.6668C255.964 19.1533 255.836 18.8966 255.707 18.8966C255.45 18.8966 254.937 18.8966 254.937 19.0249C254.937 19.0249 255.065 19.4101 255.194 19.5385C255.322 19.7952 254.295 20.1804 254.423 20.052V19.9236C254.423 19.6669 254.552 19.2817 254.423 19.1533C254.038 18.8966 254.038 19.2817 253.781 19.5385C253.525 19.7952 253.14 19.9236 252.754 20.1804C252.626 20.1804 252.369 20.1804 252.113 20.1804H251.856C251.599 20.1804 250.957 20.3087 250.315 20.5655L249.802 20.8223C249.545 20.9506 248.903 21.079 249.545 21.4641C249.417 21.5925 248.903 21.7209 248.518 21.8493C248.004 21.9777 247.106 23.0047 246.977 23.0047C246.849 23.0047 246.335 22.8763 245.694 22.7479L245.437 23.2615L245.18 23.775C244.795 23.6466 244.281 23.775 244.281 23.9034C244.153 24.0317 243.896 24.4169 243.768 24.5453H243.64C242.613 24.4169 241.842 24.802 241.329 25.4439L241.072 25.829C240.687 26.0858 240.302 26.0858 240.173 25.9574C240.173 25.829 239.403 25.7006 238.633 25.9574L237.991 26.2142H237.862C237.734 26.3425 237.477 26.7277 237.221 27.1128C236.964 27.498 236.579 28.2682 236.707 28.0115C236.707 27.7547 236.45 27.1128 236.194 27.2412C235.937 27.3696 235.423 28.2682 235.295 28.0115L235.167 27.8831C234.91 27.7547 234.653 27.8831 234.653 28.1399C234.653 28.2682 234.396 28.3966 234.139 28.3966H233.112C232.471 29.0385 231.315 29.8088 230.545 30.0655L229.775 30.1939V30.4507C230.16 30.7074 230.031 30.8358 229.775 31.0925C229.646 31.2209 229.518 31.3493 229.389 31.3493H229.261C229.004 31.3493 228.876 31.0926 229.004 30.8358H229.518C229.389 30.5791 229.261 30.3223 229.004 30.4507C228.748 30.579 228.234 30.9642 228.106 30.9642C227.977 31.0926 227.464 30.8358 227.335 30.9642C227.207 30.9642 226.18 31.6061 225.41 31.9912L224.639 32.3763L224.383 32.5047C224.126 32.3763 223.741 32.5047 223.612 32.5047C223.484 32.6331 223.484 32.7615 223.741 32.7615C223.998 32.7615 224.896 32.7615 225.025 33.0182C225.153 33.1466 225.281 33.6601 225.025 33.7885L224.896 33.9169L224.768 34.0453C224.639 34.1737 224.383 34.1737 224.383 34.0453C224.383 33.9169 223.869 33.9169 223.484 34.302L223.227 34.6872C223.227 34.8156 223.227 34.9439 223.356 35.0723V35.2007C223.356 35.3291 223.227 35.4575 223.099 35.4575H222.971C222.714 35.3291 222.329 35.2007 222.2 35.2007H222.072C221.943 35.2007 221.558 35.2007 221.302 35.0723C221.045 35.0723 220.66 34.4304 220.146 34.302L217.964 33.9169L217.193 34.1737C216.68 34.8156 216.166 35.0723 215.91 34.6872H215.781C215.525 34.6872 215.268 34.8155 215.139 35.0723L214.883 35.3291C214.754 35.7142 214.754 36.2277 214.754 36.3561H215.139C215.268 36.6128 215.268 36.8696 215.139 36.998C215.139 37.1264 214.754 37.5115 214.498 37.2548C214.241 36.998 214.112 36.6128 213.856 36.3561H213.47H213.342C213.342 36.2277 213.214 36.0993 213.214 35.971C213.214 35.971 213.085 35.8426 212.829 35.8426V36.6129C212.058 36.6129 211.545 36.8696 211.673 37.1264C211.802 37.3831 212.7 37.5115 212.829 37.6399C212.829 37.8966 212.829 38.5385 212.7 38.5385C212.443 38.5385 211.802 37.6399 211.416 37.2548L210.775 37.8967L210.646 38.025C210.389 38.1534 210.261 38.1534 210.389 38.2818C210.518 38.2818 210.518 38.5385 210.261 38.7953C209.876 38.9237 210.389 39.8223 210.133 39.9507H210.004L209.619 39.8223C209.234 39.5656 208.849 39.4372 208.977 39.694C208.977 39.8223 208.977 40.3358 208.849 40.3358C208.72 40.3358 208.207 40.5926 208.335 40.8493C208.464 40.9777 208.592 41.6196 208.207 41.6196L208.079 41.4912L207.822 41.3629C207.822 41.1061 207.693 40.721 207.693 40.5926C207.693 40.4642 207.822 39.8223 208.079 39.5656C208.464 39.3088 208.207 38.2818 207.95 38.4102C207.693 38.5385 207.18 39.0521 207.18 39.3088C207.18 39.5656 207.18 40.0791 206.923 39.9507C206.666 39.8223 205.383 40.5926 205.126 40.5926L204.869 40.4642L204.612 40.3358C204.356 40.3358 203.97 40.3358 203.714 40.3358C203.585 40.4642 203.457 41.1061 203.329 41.3629C202.558 41.3629 202.815 41.8764 202.687 42.1331L202.558 42.2615C202.302 42.3899 202.045 42.3899 202.045 42.2615C202.045 42.1331 201.66 42.0048 201.531 42.1331C201.403 42.2615 200.761 42.775 200.504 42.6466C200.247 42.6466 200.376 43.1602 200.504 43.2885C200.633 43.4169 200.633 43.6737 200.633 43.8021C200.633 43.9305 201.531 44.1872 201.66 44.3156C201.788 44.444 201.916 44.9575 201.531 45.2142L201.018 44.7007L200.889 44.444C200.504 44.3156 200.119 44.1872 200.119 44.1872C200.119 44.1872 199.477 44.3156 199.092 44.444L199.22 44.9575V45.3426C198.964 45.2142 198.45 44.9575 198.193 44.9575V45.3426C198.193 45.471 198.065 45.7277 197.937 45.8561C197.68 45.7277 197.552 45.5994 197.423 45.471C197.423 45.3426 197.552 44.8291 197.808 44.5723L197.937 44.444H198.193C198.322 44.3156 198.45 44.1872 198.45 44.0588C198.45 43.9304 198.193 43.8021 198.065 43.8021H197.68C197.295 43.8021 197.038 43.9305 197.038 44.1872C197.166 44.3156 196.524 44.5723 196.268 44.5723H196.011V44.444L195.754 43.9304C195.112 43.8021 194.47 43.6737 194.342 43.6737V43.8021C194.342 43.9305 194.342 44.0588 194.47 44.1872L195.241 44.8291C195.497 45.3426 195.883 45.8561 196.011 45.9845H196.139C196.268 45.9845 196.396 45.8562 196.396 45.7278L196.524 45.5994C196.524 45.2142 197.038 45.7277 197.552 46.6264L198.322 47.1399C198.579 47.2683 198.835 47.2683 198.964 47.0116V46.8832C199.092 46.7548 199.22 46.6264 199.477 46.6264C199.606 46.6264 200.119 46.6264 200.247 46.3697C200.376 46.2413 200.761 45.9845 201.018 46.3697C201.275 46.6264 201.916 47.3967 201.531 47.3967C201.275 47.3967 200.633 48.0386 200.119 48.167L199.734 48.4237C199.606 48.4237 199.477 48.167 199.606 48.167C199.606 48.0386 199.734 47.6535 199.477 47.6535C199.349 47.6535 199.092 48.0386 199.092 48.4237L198.964 48.6805L198.835 48.9372C198.964 48.9372 198.964 49.194 198.835 49.3224C198.707 49.4507 197.937 49.7075 197.552 49.4508H197.295C196.653 49.5791 196.91 48.9372 196.524 48.8089C196.139 48.6805 196.011 48.6805 196.268 48.4237C196.653 48.1669 196.781 47.7818 197.423 48.167L197.68 48.2953C197.937 47.7818 197.68 47.3967 197.166 47.3967C196.653 47.3967 195.626 47.9102 195.112 48.167L194.984 48.5521L194.856 48.8089C195.112 49.194 195.369 49.5791 195.497 49.8359C195.626 49.9643 195.112 50.4778 194.47 50.221L193.957 50.0926C193.829 49.4508 193.7 48.9372 193.829 48.9372L193.7 49.194C193.443 49.5791 193.443 49.5791 193.957 49.7075C194.214 49.7075 194.342 49.9643 194.599 49.8359H194.727C194.727 49.5791 194.727 49.194 194.599 48.8089C194.47 48.5521 194.599 47.7818 194.342 47.7818H194.214H193.957C193.829 48.2953 193.829 49.0656 193.7 49.3224C193.7 49.7075 193.7 50.221 194.085 50.3494L194.47 50.4778C194.856 50.6061 194.856 50.7345 194.342 50.9913H194.214C194.214 51.1197 194.085 51.2481 194.085 51.5048C194.085 51.6332 193.829 52.0183 193.572 52.0183C193.443 52.0183 192.801 52.1467 192.545 52.5318H192.16H191.774C191.646 52.7886 191.389 53.0454 191.133 53.1737C190.876 53.3021 190.106 53.5589 189.849 53.5589C189.592 53.5589 189.335 53.0453 189.464 52.917C189.592 52.7886 189.849 52.5318 189.592 52.4035L189.464 52.2751C189.207 52.1467 189.079 51.8899 189.335 51.7616L189.592 51.6332C189.977 51.6332 190.491 51.6332 190.747 51.6332C191.004 51.7615 191.646 50.8629 191.774 50.7345C191.903 50.6062 192.545 50.4778 192.93 50.221L192.545 49.9643C192.416 49.8359 192.288 49.8359 192.16 49.7075H192.031C191.903 49.7075 191.774 49.5791 191.903 49.4508C192.031 49.3224 192.416 48.9372 192.288 48.9372C192.16 48.9372 191.646 48.9372 191.518 49.194C191.261 49.4507 190.876 50.6062 190.619 50.7345C190.362 50.7345 189.464 50.8629 189.464 50.7345C189.592 50.6062 189.72 50.0926 189.592 49.9643H189.464C189.335 49.9643 189.079 49.9643 189.079 50.0926L188.822 50.3494C188.693 50.7345 188.18 50.8629 187.795 50.8629H187.41C187.281 50.8629 187.153 51.1197 187.153 51.248V51.3764C187.281 51.5048 187.153 51.6332 186.896 51.6332L186.768 51.5048L186.511 51.3764C186.254 51.1197 186.254 50.9913 186.383 50.8629C186.511 50.7345 186.768 50.3494 186.896 49.9643L186.768 49.7075L186.639 49.4508C186.768 49.194 186.896 49.0656 186.896 48.9372C186.896 48.9372 187.153 48.5521 187.41 48.2953C187.666 48.0386 189.079 47.2683 189.592 47.0116C189.977 46.7548 191.261 46.1129 191.261 46.1129V46.2413V46.498C191.133 46.7548 191.133 46.8832 191.261 46.7548C191.389 46.6264 191.903 46.498 192.031 46.3697C192.16 46.3697 192.673 46.2413 193.058 46.3697V45.8561V45.471C193.443 44.9575 193.829 44.5724 193.957 44.444C194.085 44.3156 194.085 44.3156 193.957 44.3156C193.829 44.3156 193.315 44.3156 193.058 44.444C192.801 44.444 192.545 45.0858 192.288 45.2142L191.646 44.5723ZM189.464 49.3224C189.335 49.3224 188.822 49.4508 188.437 49.4508H188.18H187.666C187.41 49.7075 187.41 50.0927 187.41 50.221C187.538 50.3494 187.923 50.4778 188.18 50.3494C188.437 50.221 188.822 48.8088 188.95 49.194C188.95 49.3224 189.592 49.3224 189.464 49.3224ZM75.0781 51.6332C73.6659 52.4034 73.6659 52.6602 74.9497 53.1737C74.9497 52.6602 75.0781 52.2751 75.0781 51.6332Z" fill="#FFBE48"/>
</svg>
