<svg width="181" height="77" viewBox="0 0 181 77" fill="none" xmlns="http://www.w3.org/2000/svg">
<path d="M10.0617 71.2182C9.93332 71.2182 9.54819 71.0898 9.16305 70.9614C8.90629 70.8331 7.87927 70.4479 7.62251 70.5763C7.36575 70.5763 6.85224 71.0898 6.72386 71.0898C6.59548 71.0898 5.44006 71.475 5.31168 71.7317H5.56844C5.69682 71.7317 5.8252 71.4749 5.95358 71.3465L6.21033 71.2182C6.46709 71.0898 6.4671 70.833 6.33872 70.7047C6.21034 70.5763 5.44006 70.9614 5.31168 71.0898C5.18331 71.2182 5.69681 71.6033 5.82519 71.7317C5.95357 71.9885 6.08196 72.2452 5.31168 72.1168C4.54141 71.9884 3.25763 70.9614 3.12925 70.833C3.00087 70.7047 2.61572 70.5763 2.35897 70.5763L2.48735 70.1911L2.61572 69.806C2.7441 69.4209 2.74411 69.0357 2.48735 69.0357H2.2306H1.5887C1.33195 68.6506 0.818419 67.4952 0.433282 66.4682L0.0481415 65.5695V65.4412C-0.0802374 65.3128 0.0481454 65.056 0.433282 64.9276C0.69004 64.6708 1.33194 64.1574 1.20356 64.029C1.07518 63.9006 1.71707 63.5155 1.97383 63.3871L2.2306 63.2587C2.2306 63.2587 2.35897 63.0019 2.35897 62.7452C2.35897 62.4884 3.12924 61.7182 3.25761 61.5898C3.38599 61.333 3.77114 60.6911 3.77114 60.5627V60.4343V60.1776C4.15628 60.1776 4.79818 60.1776 5.44007 60.0492V59.6641V59.5357C5.05493 59.279 4.92655 59.1506 5.05493 59.0222C5.31169 58.8938 5.8252 58.7654 5.95358 58.7654C6.08196 58.7654 6.08195 58.3803 6.21033 58.2519H6.33872H6.59547C6.98061 58.2519 7.10899 58.1235 6.98061 57.8668C6.85223 57.61 6.46709 56.9681 6.59547 57.0965C6.85223 57.2249 7.6225 57.2249 7.75088 56.9681L7.87926 56.7114C8.00764 56.583 8.00764 56.3262 8.13602 56.3262L8.39277 56.1979C8.64953 56.0695 8.90629 55.9411 8.77791 55.8127C8.77791 55.6844 8.77791 55.4276 9.03466 55.556C9.4198 55.6843 9.93332 56.1979 9.67656 56.3262L9.54819 56.4546V56.583C9.29143 56.7114 8.77791 57.0965 8.39277 57.4816L8.52116 57.8668C8.52116 57.9951 8.64953 58.1235 8.77791 58.1235H8.9063C9.03468 57.9952 9.5482 57.8668 9.93333 57.7384V57.2249L9.80495 56.583C9.16305 56.7114 8.64954 56.7114 8.64954 56.7114C8.52116 56.7114 9.41981 56.8398 9.80495 56.8398C10.1901 56.8398 10.7036 57.3533 10.832 57.4816C10.9604 57.4816 11.2171 57.9951 11.0887 58.5087H10.3185C10.3185 58.7654 10.0617 59.1506 9.93333 59.2789C9.67657 59.4073 8.64954 59.5357 8.52116 59.5357C8.2644 59.5357 7.75088 59.7924 7.75088 59.7924C7.75088 59.7924 7.62251 59.6641 7.62251 59.5357C7.62251 59.4073 7.23738 59.0222 6.72386 59.0222L6.59547 59.1506C6.33872 59.5357 6.85222 59.5357 7.10898 59.6641H7.23737C7.23737 59.7925 7.10898 60.0492 6.85223 60.1776H6.72386L5.95358 59.9208C5.8252 60.4344 5.69681 60.8195 5.82519 60.8195C5.95357 60.8195 6.33871 60.8195 6.46709 60.6911C6.59547 60.6911 7.36575 60.5627 7.87926 60.4343L8.52116 61.0762C8.90629 61.4614 9.16306 61.7182 8.9063 62.1033L8.77791 62.2317C8.77791 62.4884 9.03468 62.3601 9.54819 62.1033L9.67656 61.8465C9.80494 61.7181 9.41981 61.333 9.41981 61.0762L9.29144 60.8195C9.16306 60.5627 9.29143 60.4343 9.54819 60.4343C9.80495 60.5627 10.3185 60.8195 10.3185 60.9479C10.3185 61.0763 10.3185 61.333 10.4468 61.333C10.7036 61.333 10.832 60.8195 10.9603 60.306C11.0887 59.9209 10.832 59.0222 11.2171 59.1506C11.6023 59.2789 12.7577 59.5357 12.5009 59.2789C12.2442 59.1506 12.3725 58.6371 12.886 58.3803L13.1428 58.1235L13.3996 57.8668C13.6563 57.61 13.6563 57.3533 13.2712 57.3533C12.886 57.3533 11.7306 57.2249 11.4739 57.2249C11.2171 57.0965 10.7036 56.583 10.832 56.583C10.9604 56.583 11.0887 56.1978 10.9603 55.9411C10.832 55.6843 9.93332 55.2992 10.0617 55.1708C10.1901 55.0425 10.7036 54.9141 10.832 55.0425L10.9603 55.1708C11.0887 55.2992 11.2171 55.4276 11.3455 55.4276C11.4739 55.4276 11.7306 55.2992 11.7306 55.2992V54.9141C11.7306 54.5289 11.7306 54.1438 11.859 54.1438C11.859 54.1438 11.9874 54.1438 11.9874 54.2722L12.1158 54.4006C12.3725 54.2722 12.6293 54.1438 12.886 54.0154L13.2712 53.7587C13.0144 53.5019 12.886 53.2452 12.886 53.1168C13.0144 53.1168 13.1428 53.1168 13.2712 53.1168C13.3996 53.2452 13.3995 53.3735 13.5279 53.5019L13.6563 53.7587C13.9131 53.6303 14.2982 53.3735 14.555 53.1168C14.6833 52.86 15.1969 52.2181 15.0685 51.9614V51.7046L15.4536 51.5762L15.9671 52.0897C16.0955 51.7046 16.3523 51.1911 16.4806 50.9343C16.609 50.6776 16.9942 50.164 17.2509 50.2924C17.5077 50.2924 18.4063 50.4208 18.4063 50.164C18.4063 50.0357 18.6631 49.5221 18.6631 49.6505C18.7915 49.7789 19.1766 50.0357 19.4334 50.0357L19.5618 49.9073L19.9469 49.2654C20.5888 49.3938 21.1023 49.6505 21.2307 49.6505C21.2307 49.7789 21.6158 50.0357 21.8726 49.9073C22.1293 49.7789 22.8996 49.2654 23.028 49.137L22.8996 49.0086C22.6428 49.0086 22.3861 49.0086 22.2577 49.0086C22.1293 49.137 21.6158 49.137 21.4874 48.7519L21.2307 48.6235L20.9739 48.4951C20.332 48.4951 20.0753 48.4951 20.5888 48.3667C21.1023 48.2384 21.2307 47.4681 21.359 47.4681C21.4874 47.4681 21.7442 47.4681 21.6158 47.5965C21.6158 47.5965 21.6158 47.8532 21.7442 47.9816C21.8726 48.11 22.5145 48.4951 22.6428 48.6235L22.8996 48.3667L23.028 48.2383C23.028 48.11 23.028 47.8532 22.8996 47.7248C22.8996 47.5965 23.1564 47.2113 23.2847 47.0829C23.4131 46.9546 23.2847 46.1843 23.4131 46.1843C23.5415 46.1843 24.1834 46.3127 24.055 46.4411C23.9266 46.6978 23.7982 47.0829 23.9266 47.0829C24.055 47.0829 24.1834 46.9546 24.4401 46.6978C24.5685 46.4411 25.4672 45.7992 25.8523 45.7992L26.2375 45.9275C26.4942 46.0559 26.751 46.1843 27.0077 45.9275V45.6708L26.8793 45.5424C26.6226 45.414 26.3658 45.2857 26.2375 45.2857C26.1091 45.2857 25.9807 45.0289 26.2375 44.9005L26.3658 44.7721V44.6438C26.2374 44.387 26.3658 44.2586 26.8793 44.2586C27.3929 44.2586 28.2915 43.4883 28.805 43.7451L28.1631 44.1302C28.0348 44.2586 27.778 44.2586 27.6496 44.2586L27.3929 44.1302C27.1361 44.2586 26.751 44.6438 26.6226 44.9005L27.1361 45.2857L27.778 45.7992C27.6496 46.3127 27.0077 46.3127 26.2375 46.0559L25.8523 46.9546H25.5956L24.9537 47.0829C25.3388 47.4681 25.7239 47.5965 25.9807 47.4681C26.2375 47.3397 26.8793 46.9546 27.1361 47.0829C27.3929 47.2113 27.6496 47.4681 27.2645 47.5965C26.8793 47.7248 26.4942 49.0086 26.3658 49.2654V49.5221C26.3658 49.6505 26.4942 49.9073 26.6226 50.0357H26.751C27.0077 49.9073 27.2645 49.6506 27.5212 49.3938L27.9064 49.2654C28.0348 49.137 28.2915 49.0086 28.2915 48.8802L28.1631 48.2383C28.0348 47.5965 28.1631 46.9546 28.1631 46.9546C28.2915 46.9546 28.5483 47.083 28.6766 47.2113C28.805 47.3397 29.0618 47.7248 29.0618 47.8532C29.0618 47.9816 29.4469 48.11 29.7037 47.9816L29.8321 47.8532L30.0888 47.3397C30.3456 46.6978 30.8591 46.3127 31.1159 46.5694C31.3726 46.8262 31.2442 47.7248 31.1159 47.7248C30.9875 47.7248 29.832 48.6235 30.2172 48.6235H30.474H30.8591C31.2442 48.4951 31.501 48.6235 31.3726 48.8802C31.2442 49.137 30.8591 49.6505 30.8591 49.5221C30.8591 49.3938 30.474 49.2654 30.0888 49.3938L29.8321 49.5221C29.8321 49.5221 29.9604 49.7789 29.9604 50.0357V50.164C30.0888 50.4208 29.832 50.5492 29.5753 50.4208C29.3185 50.2924 28.5483 50.5492 28.4199 50.6776C28.2915 50.806 27.3928 51.3195 27.0077 51.1911C26.6226 51.1911 25.4672 51.4478 25.3388 51.1911C25.2104 51.0627 24.9537 50.4208 25.2104 50.4208H25.3388C25.4672 50.4208 25.7239 50.2924 25.8523 50.164C25.7239 50.0357 25.4672 49.7789 25.2104 49.6505C24.9537 49.5221 24.5685 49.137 24.5685 49.0086C24.5685 48.8803 24.5685 48.4951 24.3118 48.6235C24.055 48.7519 23.6699 49.6506 23.7982 50.0357V50.2924V50.4208C23.7982 50.5492 23.6699 50.8059 23.4131 50.8059L23.2847 50.6776C23.1564 50.5492 23.028 50.2924 23.028 50.164C23.028 50.0357 22.7712 49.7789 22.6428 49.9073C22.5145 49.9073 22.3861 50.164 22.2577 50.164C22.1293 50.164 21.2307 50.4208 21.2307 50.5492V50.6776V50.8059C21.1023 50.9343 20.9739 51.0627 20.9739 51.0627C20.9739 51.0627 20.5888 51.0627 20.5888 51.3195C20.5888 51.5762 20.332 52.3465 19.9469 52.3465C19.5617 52.3465 18.6631 51.833 18.4063 51.7046L18.1496 51.9614C18.0212 51.833 17.7644 51.7046 17.7644 51.5762C17.6361 51.4478 17.3793 51.833 17.6361 52.2181L18.1496 52.3465C18.6631 52.4749 19.0482 52.4749 19.5618 52.6033H19.6901C19.6901 52.6033 19.5617 52.86 19.4334 52.9884C19.305 53.1168 18.7915 53.2452 18.278 53.2452L18.0212 53.3735L17.8928 53.5019C17.7644 53.7587 17.3793 54.1438 17.1225 54.2722L16.7374 54.1438H16.609C16.4807 54.1438 16.3523 54.2722 16.3523 54.5289C16.3523 54.7857 16.609 55.2992 16.9942 55.1708C17.2509 55.0425 18.4063 54.6573 18.5347 54.7857C18.6631 54.9141 19.1766 55.1708 19.305 55.0425C19.4334 54.9141 19.6901 54.5289 19.5618 54.4006C19.4334 54.2722 19.1766 53.887 19.305 53.7587C19.4334 53.6303 19.8185 53.7587 20.2036 53.7587L20.5888 53.6303L21.2307 53.5019C20.9739 54.5289 20.7172 55.8127 20.7172 56.1979C20.7172 56.7114 21.2307 56.3262 21.4874 55.9411C21.7442 55.5559 23.1564 55.2992 23.2847 55.2992C23.2847 55.1708 23.4131 54.9141 23.2847 54.9141C23.028 54.7857 22.7712 54.9141 22.5145 54.7857C22.2577 54.6573 22.1293 54.4006 22.0009 54.2722L21.7442 54.4006V54.6573C21.4874 54.7857 21.1023 54.9141 20.9739 55.1708V55.2992C21.1023 55.4276 21.359 55.556 20.9739 55.8127L20.5888 56.0695C20.7171 55.8127 20.8455 55.1708 20.9739 54.6573C21.1023 54.1438 21.6158 53.3735 21.8726 53.1168L22.1293 52.9884C22.2577 52.9884 22.3861 52.9884 22.5145 52.9884C22.6428 52.86 22.7712 52.7316 22.8996 52.7316L23.4131 52.3465C23.7983 51.833 24.3118 51.4478 24.5685 51.4478C24.8253 51.4478 25.8523 51.7046 26.2375 51.9614L25.7239 52.3465L25.5956 52.4749C25.7239 52.86 25.7239 53.1168 25.7239 53.1168C25.7239 53.1168 25.3388 53.1168 24.8253 52.9884V53.5019C24.8253 53.887 25.2104 53.7587 25.4672 53.7587H25.9807C26.6226 53.2452 27.3929 52.7316 27.5212 52.6033C27.6496 52.4749 28.1631 52.6032 28.1631 52.7316C28.0348 52.9884 27.6496 54.2722 27.6496 54.5289C27.6496 54.7857 27.9064 54.7857 28.0347 54.6573C28.1631 54.5289 28.2915 53.887 28.1631 53.5019L27.6496 53.6303C27.1361 53.887 26.6226 54.1438 26.3658 54.2722C26.1091 54.4006 25.5955 54.9141 25.7239 55.0425C25.8523 55.1708 26.2375 55.6843 26.2375 55.556C26.2375 55.4276 26.4942 55.1708 26.6226 55.2992C26.751 55.2992 27.0077 55.4276 27.0077 55.1708C27.0077 55.0425 28.0348 54.0154 28.4199 53.8871C28.805 53.8871 29.9604 53.2451 30.0888 52.9884C30.3456 52.7316 31.3726 52.7316 31.3726 52.6033C31.3726 52.4749 31.6294 52.2181 31.8861 52.0897C32.1429 51.9613 32.6564 51.4479 32.528 51.3195C32.3996 51.1911 31.8861 50.9343 31.8861 51.0627C31.8861 51.1911 31.6294 51.4478 31.501 51.5762C31.3726 51.7046 31.3726 52.2181 31.1159 52.2181C30.9875 52.2181 30.4739 51.833 30.2172 51.7046C30.0888 51.5762 29.7037 51.1911 29.8321 50.9343C29.9604 50.6776 30.7307 50.8059 31.2442 50.8059L31.3726 50.4208C31.501 50.164 31.2442 49.7789 31.8861 49.7789H32.0145C32.1429 49.7789 32.528 49.6505 32.6564 49.7789C32.9132 49.7789 33.4267 50.164 33.1699 50.4208H33.0415C32.6564 50.4208 32.528 50.6775 32.6564 50.8059C32.7848 50.9343 33.1699 50.9343 33.4267 50.9343L33.8118 50.8059C33.8118 50.2924 33.8118 49.6506 33.6834 49.3938L33.555 49.2654L33.4267 49.137C33.0415 49.0086 33.0415 48.8802 33.4267 48.8802C33.8118 48.8802 34.5821 49.6505 34.9672 49.9073L35.0956 50.164C35.0956 50.2924 35.4807 50.2924 35.4807 50.2924C35.8659 50.0357 36.251 49.9073 36.6361 49.6505C36.6361 49.6505 36.6361 49.5222 36.6361 49.3938C36.6361 49.2654 36.5078 49.2654 36.3794 49.2654L35.9942 49.3938C35.4807 49.5222 35.224 49.5222 35.3523 49.3938C35.4807 49.2654 35.8659 48.8803 35.9942 49.137C36.1226 49.2654 36.7645 48.7519 37.0213 48.6235C37.278 48.4951 38.3051 48.11 38.6902 48.11H39.0753H39.2037C39.3321 48.11 39.8456 47.8532 40.3591 47.5965L40.7443 47.2113L41.001 46.9546C40.8726 46.5694 41.001 46.1843 41.2578 46.0559C41.5145 46.0559 42.5416 45.9275 42.9267 45.7992C43.3118 45.6708 43.5686 44.9005 43.4402 44.7721L42.7983 45.1573C42.5416 44.7721 42.4132 44.5154 42.2848 44.6438C42.2848 44.7721 41.8997 45.2857 41.7713 45.2857C41.5145 45.2857 40.8726 45.414 41.001 45.5424C41.1294 45.6708 40.6159 46.1843 40.2307 46.1843V46.3127C40.2307 46.441 40.4875 46.8262 40.3591 46.8262C39.974 47.083 39.8456 46.8262 39.5888 46.6978H39.4605C39.2037 46.6978 39.2037 46.6978 39.3321 46.4411C39.4605 46.3127 39.5889 45.9275 39.4605 45.7992C39.3321 45.6708 39.2037 45.1573 39.3321 44.7721L39.8456 45.1573C39.974 45.2856 40.3591 45.1573 40.3591 45.1573C40.4875 45.0289 40.6159 44.7721 40.7443 44.6438C41.001 44.7721 41.2578 44.6437 41.2578 44.387L41.3862 44.2586L41.7713 43.6167C42.4132 44.0019 42.9267 44.2586 43.0551 44.2586C43.1835 44.2586 43.4402 43.8735 43.697 43.36L43.1835 42.9748L43.0551 42.8465C43.0551 42.5897 43.1835 42.5897 43.5686 42.7181L43.9537 42.8465H44.0821C44.3389 42.8465 44.4672 42.8465 44.4672 42.9748C44.4672 43.1032 44.8524 43.2316 45.1091 42.9748V42.7181L45.2375 42.0762C45.4943 41.8194 46.0078 41.5627 46.1362 41.5627C46.3929 41.5627 46.9064 41.4343 46.9064 41.1775C46.9064 40.9208 47.0348 40.4072 47.2916 40.5356C47.5483 40.664 48.5754 40.7924 48.9605 40.5356C49.3456 40.2789 48.9605 39.2519 48.9605 39.1235C49.0889 38.9951 49.2173 38.9951 49.0889 39.1235C49.0889 39.2519 50.1159 38.9951 50.3727 38.7383C50.7578 38.4816 51.9132 38.9951 52.17 38.8667V38.7383L52.2984 38.4816C52.5551 38.4816 52.9403 38.2248 53.0686 38.0964C53.197 37.968 53.4538 37.5829 53.0686 37.5829C52.8119 37.5829 52.2984 37.4545 52.5551 37.4545C52.8119 37.3262 53.3254 36.8127 53.4538 37.0694C53.5821 37.1978 54.224 37.5829 54.4808 37.5829C54.7376 37.5829 55.3795 37.3262 54.9943 36.941C54.6092 36.5559 54.4808 35.1437 54.9943 34.5018L55.5078 33.9883H55.7646H55.893C56.0213 34.1167 56.0214 34.5018 56.1497 34.887V35.2721V35.4005C56.1497 35.6572 55.893 35.5289 55.7646 35.2721H55.6362H55.3795C55.1227 35.4005 54.8659 35.6572 54.8659 35.7856C54.8659 35.914 54.8659 36.1707 55.1227 36.1707C55.2511 36.2991 55.6362 36.941 56.1497 37.0694L56.5349 36.6842C56.5349 36.6842 56.92 36.8126 57.0484 36.941C57.1768 37.0694 57.4335 37.1978 57.5619 37.1978H57.947C58.3322 37.0694 58.5889 36.941 58.3322 36.941C58.2038 36.8126 57.5619 36.6843 57.3051 36.5559C57.0484 36.4275 56.4065 36.1707 56.4065 36.0424V35.914V35.7856C56.4065 35.5289 56.5349 35.4005 56.6632 35.5288C56.7916 35.6572 57.3051 35.5288 57.4335 35.5288C57.5619 35.4005 58.0754 35.2721 58.2038 35.1437C58.3322 35.0153 58.3322 34.5018 57.947 34.6302C57.5619 34.7586 56.5349 35.0153 56.4065 35.0153C56.4065 34.887 56.4065 34.7586 56.5349 34.6302C56.5349 34.6302 56.7916 34.6302 56.7916 34.5018L57.5619 34.3734C57.4335 33.9883 57.3051 33.6032 57.4335 33.3464L57.5619 33.4748L57.8186 33.6032C58.0754 33.4748 58.3322 33.6032 58.3322 33.7316C58.3322 33.8599 58.5889 34.5018 58.8457 34.887C59.1024 35.2721 59.616 36.5559 59.7443 36.8126L60.0011 36.941C60.2579 37.0694 60.5146 36.941 60.7714 36.8126C60.7714 36.8126 60.8997 36.6843 60.7714 36.5559C60.643 36.1708 60.2579 36.4275 60.1295 36.2991C60.1295 36.2991 60.0011 36.0424 60.0011 35.6572C60.0011 35.2721 60.643 34.3734 60.643 34.2451C60.7714 34.2451 61.5416 33.9883 62.3119 33.9883L62.697 33.3464C62.8254 33.0897 63.0822 33.0897 63.3389 33.3464L63.9808 33.7316C64.366 33.3464 64.4944 32.9613 64.366 32.9613C64.1092 32.8329 63.4673 32.8329 63.4673 32.9613C63.339 33.0896 63.2106 32.5761 63.3389 32.4478H63.4673H63.9808C64.366 32.191 64.7511 32.0626 64.7511 32.0626H64.8795L65.5214 32.4478C65.7781 32.191 66.1633 31.8059 66.2917 31.8059C66.42 31.8059 67.0619 31.6775 67.3187 31.4207C67.5755 31.164 68.3457 30.5221 68.2173 30.3937C68.089 30.2653 67.8322 29.6234 67.7038 29.3667C67.7038 29.2383 68.089 29.2383 68.089 29.3667L68.3457 29.4951C68.6025 29.6234 68.8592 29.8802 68.8592 30.137C68.8592 30.2653 68.9876 30.7788 69.116 30.9072C69.2444 30.9072 69.6295 30.7788 69.8863 30.3937C70.143 30.0086 70.9133 28.9815 71.0417 28.9815C71.1701 29.1099 71.2984 29.2383 71.2984 29.3667C71.2984 29.3667 71.1701 29.6234 71.2984 29.7518H71.4268C71.5552 29.7518 71.8119 29.6234 71.8119 29.6234V29.3667C71.8119 29.1099 71.4268 28.7248 70.9133 28.468C70.3998 28.3396 69.6295 29.6234 69.6295 29.6234C69.6295 29.6234 69.3728 29.7518 69.116 29.4951C68.9876 29.3667 68.2173 29.1099 68.2173 28.9815C68.2173 28.8531 68.2173 28.468 68.089 28.3396C68.089 28.2112 68.089 28.0829 68.2173 28.0829C68.3457 28.0829 68.8592 28.468 69.2444 28.7248L69.5011 28.3396L69.8863 27.8261C70.6565 27.5694 71.2985 27.441 71.0417 27.5694C70.9133 27.6978 70.7849 28.2113 71.17 28.2113H71.4268H71.8119C71.9403 28.468 72.1971 28.5964 72.3255 28.7248C72.4539 28.7248 72.9674 28.7248 72.9674 28.468C72.9674 28.2113 73.0957 27.441 73.2241 27.441C73.3525 27.441 73.6093 27.5693 73.4809 27.6977V27.8261V27.9545C73.4809 28.0829 73.3525 28.468 73.2241 28.7248L73.4809 28.8532L73.7376 28.9815C74.1228 28.8531 74.2512 28.5964 74.1228 28.468L73.9944 28.2113L74.1228 28.0829L74.5079 28.2113C74.893 28.3397 75.1498 28.2113 75.2782 28.0829V27.9545V27.8261C75.2782 27.5694 75.4066 27.441 75.535 27.5694C75.6633 27.6978 76.1768 27.8261 76.3052 27.6977C76.4336 27.5693 76.4336 27.1842 76.4336 26.9275C76.4336 26.7991 77.0755 26.5423 77.589 26.5423C77.9741 26.5423 78.3593 25.5153 78.4877 25.3869H78.616C78.7444 25.3869 78.8728 25.5153 78.8728 25.6437C78.8728 25.7721 78.8728 25.9004 78.8728 26.0288C78.8728 26.1572 79.1296 26.2856 79.2579 26.1572L79.5147 26.0288C79.7714 25.9004 80.1566 25.6437 80.285 25.6437C80.4133 25.6437 80.7985 25.5153 80.6701 25.3869C80.5417 25.3869 80.285 25.1301 80.285 25.1301C80.285 25.0018 80.9269 24.8734 81.312 24.745C81.6971 24.6166 82.9809 24.1031 83.2377 24.2315H83.4944H84.1363C84.0079 23.8464 84.0079 23.4612 84.1363 23.2045C84.2647 22.9477 85.035 23.2045 85.1634 23.0761L85.2917 22.9477C85.5485 22.691 85.5485 22.0491 86.3188 22.691C86.3188 22.691 86.8323 22.691 86.8323 22.5626C87.089 21.9207 87.3458 21.6639 88.1161 22.1775H88.2445C88.5012 22.0491 89.2715 21.5356 89.9134 21.1504L90.4269 20.7653C90.5553 20.7653 90.812 20.3802 90.812 20.3802V20.2518C90.812 20.1234 90.9404 19.995 91.0688 19.7383C91.1972 19.4815 91.9674 19.3531 91.9674 19.6099V19.7383C91.9674 19.8666 91.9675 19.995 92.0958 20.1234C92.3526 20.3801 92.481 20.1234 92.6093 19.995L92.8661 19.2248C93.7648 18.968 95.0485 18.4544 95.8188 18.0693H96.7175C96.8459 18.0693 96.8458 17.941 96.9742 17.8126L97.231 17.2991C97.4877 17.5558 97.8729 17.6842 98.0013 17.4274C98.1296 17.1707 99.6702 16.7855 100.44 16.5288L100.697 16.272C100.826 16.1436 101.082 15.8869 101.211 15.7585C101.467 15.7585 101.596 15.8869 101.467 16.0153C101.467 16.1437 101.467 16.5288 101.853 16.272C102.238 16.1436 103.265 15.6301 103.522 15.5018C103.778 15.3734 104.677 14.8599 105.19 14.8599C105.576 14.8599 106.474 14.3463 106.988 14.7315L106.346 15.245C106.603 15.5018 106.859 15.3734 106.988 14.9882C107.116 14.6031 107.63 13.7044 107.886 13.8328C108.143 13.9612 108.528 14.3463 108.657 13.9612L109.299 14.0896C109.427 14.0896 109.684 13.9612 109.812 13.8328C109.812 13.8328 109.812 13.5761 109.684 13.5761C109.427 13.3193 109.17 13.5761 108.913 13.7044C108.785 13.7044 108.657 13.5761 108.785 13.3193C108.913 13.0626 109.17 12.6774 109.299 12.6774C109.427 12.8058 109.812 12.6774 109.94 12.4206C110.069 12.1639 111.096 11.9071 111.353 11.522H111.995H112.123C112.38 11.9071 112.636 12.1639 112.765 12.1639C112.38 11.522 113.278 11.2653 113.535 10.7517C113.535 10.7517 113.92 10.6233 114.305 10.495L114.691 10.6233C115.204 10.8801 115.332 10.495 115.589 10.1098C115.718 9.85308 116.359 10.2382 116.616 9.59631C116.745 9.0828 117.643 9.08279 118.157 9.21117C118.542 9.33955 118.67 9.33956 118.67 9.59631V9.85307C118.67 10.2382 118.927 10.3666 119.184 10.1098V9.98145L119.312 9.46795C118.927 9.08281 119.184 8.56929 119.697 8.18416L120.211 7.92738C120.339 7.79901 120.468 7.67063 120.596 7.67063C122.008 7.92739 122.522 6.6436 123.805 6.38684H123.934C123.934 6.13008 124.062 6.00171 124.191 6.13009C124.191 6.25847 124.832 6.51522 125.346 6.38684C125.859 6.25846 126.63 5.35981 126.63 5.35981V5.48819V5.61658C126.63 5.74496 126.886 5.74495 127.143 5.48819L127.272 5.35981C127.4 5.23143 127.528 5.10307 127.785 4.97469C127.914 5.10307 128.17 5.10306 128.17 4.8463L128.299 4.71791L128.427 4.58955C128.684 4.58955 128.941 4.71792 129.069 4.8463C129.197 4.8463 129.968 4.46116 130.481 4.2044C130.995 3.94765 132.407 3.30575 132.792 3.17737L133.177 3.049C133.305 2.92062 133.434 2.79223 133.562 2.79223L133.947 2.92062C134.333 2.92062 134.846 2.66386 134.974 2.27872H135.488C135.616 2.27872 136.13 2.4071 136.258 2.53548H136.387C136.515 2.53548 136.772 2.53549 136.643 2.40711C136.643 2.40711 136.515 2.15034 136.515 1.89358H137.028C137.285 1.89358 137.414 1.76521 137.67 1.76521C137.927 1.63683 138.184 1.50845 138.312 1.38007C138.441 1.38007 138.441 1.50845 138.441 1.63683C138.441 1.76521 138.312 2.15033 138.441 2.15033C138.569 2.15033 138.697 2.15035 138.826 2.02197L138.954 1.89358L139.596 0.994932C140.366 1.12331 141.265 1.12331 141.522 0.994932L141.65 1.12332C141.778 1.2517 141.778 1.50844 141.907 1.50844L142.164 1.63683C142.549 1.63683 142.805 1.50844 142.805 1.25169C142.805 1.12331 142.677 0.481425 142.42 0.481425C142.164 0.481425 141.522 0.35303 141.65 0.224651L141.907 0.0962842C142.164 -0.0320947 142.549 -0.0320947 142.934 0.0962842C143.191 0.224663 144.089 0.0962842 144.218 0.0962842H144.346C144.988 0.224663 145.245 0.481417 144.988 0.994932C144.988 1.12331 144.731 1.12331 144.731 1.25169V1.38007C144.731 1.50845 144.988 1.63683 145.245 1.63683L145.373 1.50844L145.887 1.12332C146.657 1.2517 147.17 1.50844 147.17 1.50844C147.17 1.50844 147.556 1.50844 147.941 1.25169H148.326H148.839C149.481 1.38007 149.995 1.63682 149.995 1.89358C149.995 2.15034 150.765 2.15034 150.893 2.27872C150.893 2.4071 150.893 2.92062 150.893 3.30576H151.535C151.535 3.56251 151.407 4.20441 151.279 4.58955L151.664 5.10305C151.792 5.35981 152.434 5.87334 151.664 6.25847C151.664 6.25847 151.792 6.51522 151.792 6.6436C151.792 6.77197 151.92 7.02874 151.92 7.15712L152.049 8.44091L152.306 8.95442C152.562 9.46794 152.691 10.2382 152.691 10.495C152.691 10.7517 153.461 11.522 153.589 11.6504C153.718 11.7788 153.718 12.2923 153.461 12.2923H153.333C153.076 12.4207 152.691 12.549 152.434 12.6774C152.306 12.8058 153.076 13.0625 152.306 13.1909H152.049C151.792 13.4477 151.535 13.7044 151.407 13.8328C151.278 13.9612 150.893 14.3463 150.893 14.6031H150.765L150.38 14.7315C149.866 14.7315 149.353 15.1166 149.096 15.3734L148.839 15.6301L148.454 15.8869C147.941 16.1437 147.299 16.4004 146.914 16.6572C146.528 16.9139 144.86 17.8126 144.089 18.1977L143.447 18.5829C143.447 18.5829 143.062 18.5829 142.677 18.5829C142.292 18.5829 141.522 19.3531 141.265 19.6099C141.008 19.7383 139.981 20.3801 139.339 20.6369C138.826 20.8936 137.414 21.7923 137.285 21.9207C137.157 21.9207 136.772 22.0491 136.515 22.0491C136.258 22.0491 135.745 22.5626 135.616 22.691C135.488 22.8193 134.846 22.9477 134.846 23.4612H133.947H133.691C133.434 23.4612 133.305 23.4612 133.305 23.4612C133.305 23.3329 133.305 23.2045 133.177 23.0761C133.049 23.0761 132.792 23.0761 132.535 23.2045C132.278 23.3328 132.407 24.2315 132.022 24.8734L131.251 25.0018L130.609 25.1301C130.096 25.3869 129.582 25.772 129.197 25.772C128.941 25.9004 128.299 26.2856 128.042 26.5423L127.785 26.6707L127.4 26.9275C126.887 27.1842 126.373 27.441 126.245 27.441H126.116H125.988C125.859 27.441 125.474 27.5694 125.089 27.8261C124.832 28.0829 123.805 28.9815 123.549 29.1099C123.164 29.2383 122.136 29.7518 122.136 29.7518C122.136 29.7518 122.393 29.8802 122.778 29.8802C123.164 29.8802 124.319 29.6234 124.576 29.4951L124.832 29.3667L125.859 28.8532C126.116 28.9815 126.501 29.1099 126.758 28.9815C126.887 28.9815 127.015 28.7248 127.143 28.5964C127.4 28.468 127.657 28.3397 128.042 28.2113H128.684C129.326 28.0829 129.839 27.5694 129.839 27.1842L130.353 27.441L131.123 27.8261C131.251 27.3126 131.508 26.9275 131.765 26.9275C132.022 26.9275 132.792 26.9275 132.92 26.9275V26.2856C133.434 26.2856 134.204 26.2856 134.461 26.1572C134.718 26.1572 135.36 25.772 135.616 25.772C135.873 25.772 136.772 25.7721 137.028 25.6437C137.414 25.6437 138.184 24.8734 138.312 24.6166L138.826 24.8734C139.083 24.6167 139.468 24.3599 139.468 24.4883C139.468 24.6166 139.853 24.6167 140.11 24.2315L140.366 24.1031C140.623 23.9748 141.008 24.1031 141.393 23.9747H141.907C142.292 23.718 142.677 23.4612 142.805 23.4612H142.934C143.062 23.4612 143.191 23.5896 143.319 23.5896C143.576 23.5896 143.576 22.8193 144.218 23.3329L144.346 23.4612C144.731 23.3329 145.373 23.0761 145.758 22.8193L146.015 22.5626C146.4 22.3058 146.657 23.0761 147.042 22.691L147.299 22.4342C147.684 22.5626 148.326 22.691 148.839 22.8193L148.968 22.1775V22.0491C149.096 22.0491 149.481 21.7923 149.995 21.7923C150.38 21.6639 151.664 21.4072 151.664 21.5356C151.792 21.6639 152.049 21.9207 152.049 21.7923C152.049 21.6639 152.562 21.2788 153.076 21.4072L153.333 21.2788C153.718 21.2788 153.974 21.4072 153.974 21.4072C153.974 21.4072 154.36 21.6639 154.616 21.6639C154.873 21.7923 155.258 22.691 155.258 22.8193C155.258 22.9477 156.67 22.9477 157.184 23.0761C157.697 23.0761 159.366 23.4613 159.751 23.718C160.137 23.9748 160.907 25.2586 161.035 25.5153H160.393C160.265 25.5153 160.137 25.7721 160.265 25.9004L160.393 26.0288C160.265 26.1572 160.137 26.4139 160.008 26.5423C159.88 26.6707 160.265 26.9275 160.393 27.0558C160.522 27.1842 160.265 27.8261 160.008 28.0829L160.65 28.2113L161.164 28.3396C161.035 28.7248 160.779 29.3667 160.65 29.6234C160.522 29.8802 160.522 31.0356 160.137 31.2924H161.164C161.164 31.4207 161.292 31.8059 161.292 32.0626C161.292 32.3194 161.42 33.3464 161.42 33.4748L161.035 33.9883C161.42 34.3735 161.934 34.7586 162.191 35.0153C162.447 35.2721 161.164 36.2991 160.522 36.5559L160.008 36.8126C159.495 37.0694 159.11 37.7113 158.853 38.2248C158.596 38.6099 159.11 38.8667 159.495 38.6099C160.008 38.3532 160.137 38.9951 160.522 38.7383C160.779 38.4816 161.035 38.0964 161.677 38.2248H162.062C162.447 38.0964 163.089 38.0964 163.475 38.2248H163.731C163.988 38.2248 164.116 37.8397 164.373 37.7113L164.63 37.5829C165.015 37.5829 165.529 37.7113 165.914 37.8397C166.299 37.9681 167.326 37.5829 167.454 37.5829C167.583 37.5829 168.225 37.8397 168.738 37.968C169.252 38.0964 170.664 37.7113 170.92 37.8397C171.177 37.9681 172.204 38.3532 172.333 38.2248C172.461 38.0964 172.975 37.968 173.103 38.0964C173.231 38.2248 173.616 38.6099 173.616 38.6099C173.616 38.6099 172.846 38.6099 172.204 38.6099H171.562H171.177C170.792 38.8667 171.177 39.1234 171.819 39.2518L172.333 39.1235C172.846 38.9951 173.231 39.637 173.873 39.1235L174.13 38.9951C174.643 39.1235 175.029 39.2518 175.157 39.2518C175.285 39.2518 175.414 39.5086 175.542 39.637C175.671 39.7654 176.184 39.637 176.441 39.5086C176.698 39.3802 177.339 39.3802 177.468 39.3802C177.596 39.3802 177.725 39.7654 177.725 39.7654C177.725 39.8938 177.339 40.0221 176.954 40.0221C176.569 40.0221 176.312 40.7924 176.056 40.7924C175.799 40.9208 175.67 41.5627 175.799 41.5627C175.927 41.5627 176.184 41.9478 176.056 42.0762C175.927 42.3329 176.826 42.4613 177.083 42.5897H177.339C177.468 42.5897 177.596 42.5897 177.725 42.5897H177.981C178.238 42.5897 178.495 42.4613 178.623 42.4613C178.752 42.4613 179.008 42.5897 179.008 42.8465C179.008 43.1032 179.008 43.6167 178.88 43.6167C178.752 43.6167 178.11 43.6167 177.725 43.4884C177.339 43.4884 177.339 44.2586 177.468 44.0019C177.596 43.7451 178.366 44.1302 178.238 44.387C178.11 44.6437 177.725 45.1573 177.853 45.2857C177.981 45.2857 178.752 45.6708 179.265 46.0559L179.907 46.1843C179.907 46.3127 179.65 46.6978 179.522 46.9546C179.265 47.2113 179.65 48.11 179.522 48.2383C179.394 48.3667 179.265 48.6235 179.65 48.8802L179.907 49.0086C180.035 49.0086 180.292 49.0086 180.421 48.8802C180.549 48.7519 180.806 48.7519 180.934 49.0086V49.137C181.062 49.2654 180.677 49.3938 180.292 49.6505C179.779 49.9073 178.366 49.3938 178.366 49.3938C178.238 49.3938 177.725 49.7789 177.211 50.0357C176.698 50.2924 174.772 50.8059 174.643 50.8059C174.515 50.8059 174.002 51.0627 173.616 51.3195L173.231 51.4478L172.846 51.5762C172.333 51.5762 171.434 51.7046 170.92 51.7046L170.792 51.9614L170.279 52.4749C169.637 52.3465 168.995 52.2181 168.738 52.2181C168.481 52.3465 167.583 52.3465 167.326 52.3465C167.069 52.3465 165.914 52.6032 165.272 52.86C164.63 53.1168 161.934 53.5019 160.907 53.6303C159.88 53.7587 157.056 54.1438 156.799 54.2722H156.67L154.873 54.6573H153.461C152.049 55.1708 150.508 55.6844 150.123 55.8127C149.738 55.9411 147.684 56.1979 146.657 56.4546H145.63H144.731C143.833 56.7114 143.062 56.9681 142.934 56.9681C142.934 56.9681 142.549 57.0965 142.292 57.0965C142.035 57.0965 141.137 57.0965 140.88 57.2249C140.623 57.3533 139.082 57.4817 137.927 57.7384L136.9 57.9952C136.515 58.1235 135.873 57.7384 135.745 57.8668L135.231 58.2519C134.846 57.9952 134.461 57.8668 134.332 57.9952C134.204 58.1235 133.562 57.9952 133.305 58.1235C133.049 58.2519 132.15 57.7384 131.637 57.61L131.38 57.4816C130.866 57.2249 130.481 57.2249 129.968 57.2249H129.839C129.711 57.0965 129.326 56.9681 128.812 56.7114C128.299 56.4546 126.501 55.9411 125.859 55.6843L125.474 55.2992L125.089 54.9141C125.346 54.5289 125.731 54.2722 125.731 54.1438C125.731 54.1438 125.603 53.7586 125.474 53.3735L125.731 53.1168L125.859 52.9884C125.859 52.86 125.731 52.4749 125.474 52.2181C125.346 51.9613 125.218 50.9343 125.218 50.8059C125.218 50.5492 124.447 50.1641 124.447 50.0357C124.447 49.9073 124.319 48.8803 124.191 48.11L124.062 47.3397V47.2113C123.677 47.2113 123.035 47.2113 122.778 47.3397C122.522 47.4681 121.238 47.8532 120.724 48.11C120.211 48.3668 118.542 49.0086 118.285 49.5221L117.386 49.3938L116.873 49.2654C116.231 49.5222 115.332 49.9073 114.819 50.164C114.305 50.4208 112.765 50.8059 112.38 50.9343C111.995 51.0627 110.582 51.5762 110.069 51.7046C109.555 51.833 108.4 52.7316 108.143 52.86C108.015 52.9884 107.373 52.6033 107.245 52.6033C107.116 52.6033 106.603 52.7316 105.961 52.86C105.319 52.9884 103.907 54.2722 103.393 54.5289C102.88 54.7857 101.339 55.0424 101.339 55.2992C101.339 55.5559 100.44 55.4276 100.312 55.4276C100.184 55.4276 99.7986 55.8127 99.7986 55.8127C99.6702 55.8127 98.8999 55.9411 98.258 56.1979L97.6161 56.4546L97.231 56.583C96.8458 56.8397 96.4607 56.9681 96.3323 56.9681C96.2039 56.9681 95.5621 57.3533 95.3053 57.3533C95.1769 57.4816 94.2783 57.8668 93.7647 57.9952L93.2512 58.1235C92.481 58.2519 91.7107 58.3803 91.4539 59.1506C91.1972 59.1506 90.5553 59.1506 90.0418 59.1506C89.5282 59.1506 88.8864 60.0492 88.758 60.0492C88.6296 60.0492 88.2444 60.1776 87.9877 60.1776C87.7309 60.1776 86.7039 60.6911 85.9336 60.9479C85.2917 61.2047 83.1093 61.9749 82.7241 62.1033C82.339 62.2317 81.312 62.7452 81.0552 62.8736C80.9269 63.002 79.8998 63.1303 79.7714 63.2587C79.5147 63.3871 78.7444 63.7722 78.4877 63.7722C78.2309 63.7722 77.3322 64.029 77.2039 64.1574C76.9471 64.2857 75.5349 64.7992 74.3795 65.1844L73.4809 65.6979L73.3525 65.8263C73.0957 65.8263 72.5822 65.9547 72.0687 65.9547L71.9403 66.4682C71.6836 66.4682 71.0417 66.5965 70.5282 66.8533C70.0146 67.11 68.4741 67.752 67.9606 67.8803C67.4471 68.0087 65.6498 69.0358 64.8795 69.2925L64.2376 69.6776L63.3389 70.1911C62.1835 70.5763 60.8998 70.9614 60.2579 71.2182C59.7443 71.475 58.0754 72.1168 57.8186 72.2452C57.5619 72.3736 56.4065 72.7587 55.7646 72.8871C55.1227 73.0155 53.4538 73.9141 53.0686 74.0425C52.6835 74.1709 51.1429 74.6844 50.5011 74.8128L49.8592 75.0696H49.7308C49.6024 75.0696 48.7037 75.1979 47.5483 75.4547L46.7781 75.8398C46.2646 76.0966 45.751 76.225 45.3659 75.9682C44.8524 75.7114 44.4672 75.5831 44.0821 75.9682H43.9537C43.697 75.9682 42.9267 75.5831 42.1564 75.3263C41.3862 75.0695 39.0753 74.6844 39.3321 74.556V74.4277V74.2993C39.2037 74.1709 38.947 74.0425 38.8186 74.1709L38.6902 74.2993L38.5618 74.4277C38.5618 74.6844 38.4334 74.556 38.4334 74.0425C38.4334 73.529 38.8186 72.502 38.4334 72.3736L38.3051 72.2452C38.1767 72.1168 38.1767 71.7317 38.3051 71.6033L38.4334 71.0898C37.9199 70.9614 37.6632 70.833 37.7916 70.833C37.9199 70.833 38.1767 70.5763 38.1767 70.5763C37.6632 70.3195 37.1497 70.1912 36.7645 69.9344C36.5078 69.6777 36.6361 69.2925 36.7645 68.9074C36.7645 68.779 37.0213 68.6506 37.0213 68.5222L36.7645 68.1371C36.6361 67.6236 36.3794 66.9817 35.9942 66.5966L35.6091 66.2114L35.4807 66.083C35.224 65.9547 35.224 65.8263 35.3523 65.6979C35.4807 65.5695 35.4807 64.7993 35.0956 64.1574V63.3871V63.0019C35.3523 62.7452 35.8659 62.1033 36.251 61.5898L36.1226 61.333C36.1226 61.2046 35.8659 61.2046 35.7375 61.2046C35.3523 61.2046 35.6091 61.333 35.6091 61.5898C35.6091 61.7182 35.3524 62.1033 35.224 62.1033H34.5821C34.5821 62.4884 34.3253 62.7452 34.1969 62.6168C34.0686 62.4884 33.6834 62.4884 33.555 62.8736C33.555 63.2587 32.0145 63.3871 31.8861 63.9006L31.2442 64.029C30.4739 64.2857 29.7037 64.5425 29.1902 65.1844L28.9334 65.4412C28.5483 65.5695 27.778 65.6979 27.3929 65.9547C27.0077 66.2114 25.5955 66.5966 25.4672 66.7249L25.3388 66.8533L25.082 67.1101C24.6969 67.2384 24.1834 67.11 23.9266 66.8533C23.6699 66.5965 22.8996 66.2114 22.8996 66.2114C22.8996 66.3398 23.028 66.5965 23.1563 66.8533L23.2847 66.9817L23.028 67.1101C22.8996 66.9817 22.6428 66.7249 22.6428 67.1101C22.6428 67.2384 22.7712 67.3668 22.7712 67.4952H23.028C23.2847 67.4952 23.2847 67.4952 22.8996 67.6236C22.5145 67.6236 21.8726 68.2655 21.8726 68.2655H21.7442L21.1023 68.0087C21.1023 68.3939 21.1023 68.779 21.1023 68.779C21.1023 68.779 20.9739 69.0357 20.8455 69.0357C20.7172 69.0357 19.9469 69.1641 19.305 69.1641L18.7915 69.6776C18.4063 70.0628 17.8928 70.5763 17.1225 69.9344H16.7374C16.7374 70.0628 16.7374 70.1912 16.8658 70.4479V70.5763C16.9942 70.7047 16.7374 70.7047 16.3523 70.4479C15.9671 70.3195 15.0685 70.5763 15.1969 70.7047C15.3252 70.7047 15.3252 71.0898 14.8117 71.4749L14.1698 70.833C14.0414 70.7047 13.9131 70.5763 13.7847 70.5763H13.6563C13.3996 70.5763 13.2712 70.8331 13.2712 71.2182V71.4749C13.2712 71.6033 13.0144 71.7317 12.886 71.7317H12.5009C12.6293 71.6033 12.7577 71.2182 12.7577 70.9614L12.5009 70.833C12.3725 70.833 12.2441 70.7047 12.2441 70.7047L11.9874 70.833C11.859 71.0898 11.7306 71.3465 11.7306 71.3465C11.7306 71.4749 11.7306 71.7317 11.7306 71.8601C11.7306 71.9885 11.2171 71.9885 11.2171 71.8601C10.832 71.3466 10.3185 71.2182 10.0617 71.2182ZM51.3997 40.4073C51.3997 40.1505 51.3997 39.8937 51.3997 39.8937C51.3997 39.8937 52.0416 40.1505 52.6835 40.1505L53.0686 39.8937L53.4538 39.637C53.7105 39.1235 53.5821 38.8667 53.0686 39.1235L52.6835 39.3802L52.2984 39.637C52.4268 40.1505 52.17 40.4073 51.6565 40.4073L51.3997 40.2789L51.1429 40.1505C50.8862 39.7654 50.7578 39.7654 50.7578 40.0221C50.7578 40.2789 51.3997 40.7924 51.3997 40.4073ZM5.82519 69.9344C5.95357 70.0628 6.21034 69.9344 6.33872 69.6776L6.46709 69.5493C6.59547 69.4209 7.49413 69.4209 7.62251 69.6776C7.75089 69.806 7.87927 69.9344 8.00765 70.0628C8.13603 70.1911 8.39277 70.1911 8.39277 70.0628C8.52115 70.0628 8.64954 69.806 8.52116 69.6776C8.13602 69.2925 7.87926 69.0357 8.77791 68.9074H9.03466C9.16304 68.5222 9.03468 68.2655 8.64954 68.1371C8.26441 68.0087 7.23737 68.1371 7.23737 68.3939V68.6506V68.779C7.10899 68.9073 6.72384 68.9074 6.46709 68.6506L6.59547 68.3939V68.2655C6.72385 68.1371 6.59547 68.1371 6.46709 68.0087H6.33872C6.4671 68.1371 5.69681 69.6777 5.82519 69.9344ZM14.555 55.6843C14.0414 55.9411 13.9131 56.1979 14.2982 56.1979C14.6833 56.1979 15.1969 56.9681 15.3252 57.2249C15.4536 57.3533 16.0955 57.4817 16.0955 57.61C16.0955 57.61 16.0955 57.8668 15.9671 57.8668C15.8388 57.9951 15.8388 58.1235 15.8388 58.2519C15.8388 58.3803 16.3523 58.2519 16.7374 57.7384L16.8658 57.3533L17.1225 56.7114C16.4806 56.3262 15.582 56.0695 15.0685 56.0695L14.6833 55.9411L14.555 55.6843ZM116.745 9.98145C116.488 9.85308 116.231 9.85307 116.103 9.85307C116.103 9.85307 115.718 10.1098 115.589 10.3666C115.461 10.6234 116.359 11.1369 116.873 10.8801L117.386 10.6233L117.515 10.495C117.772 10.3666 117.13 9.98145 116.745 9.98145ZM139.468 2.53548C139.596 2.66385 139.853 2.79224 140.11 2.66386C140.366 2.53548 140.88 2.15033 140.88 2.15033C140.88 2.02196 140.88 1.89358 140.751 1.89358H140.623H140.366C140.11 1.89358 140.11 1.76521 140.238 1.63683V1.50844V1.38007C140.11 1.25169 139.853 1.25169 139.724 1.38007C139.596 1.50845 139.339 2.27872 139.468 2.53548ZM123.292 6.90037C123.035 6.77199 122.778 6.77198 122.65 7.02874C122.522 7.28549 121.495 7.79902 121.366 7.79902C121.366 7.9274 121.366 8.18416 121.495 8.18416H121.623L122.008 8.05577C122.393 8.05577 122.907 7.92738 123.163 7.92738C123.42 7.79901 123.549 7.02875 123.292 6.90037ZM95.0485 19.6099C95.1769 19.7383 95.3053 19.3531 95.1769 18.968L95.9472 19.4815L96.3323 19.7383C96.5891 19.4815 96.7175 19.2247 96.7175 18.968C96.7175 18.8396 96.7175 18.4545 96.4607 18.4545C96.3323 18.4545 95.6904 18.7112 95.3053 18.968L94.9201 19.0964C94.9201 18.968 94.9202 19.3531 95.0485 19.6099ZM61.5416 35.2721C61.7984 35.6572 62.0551 35.6572 62.3119 35.2721C62.5687 35.0154 63.339 34.3734 63.4673 34.2451C63.5957 34.1167 63.2106 33.8599 62.8254 33.7316L62.697 33.8599C62.3119 34.2451 61.9268 34.6302 61.67 35.0153L61.5416 35.2721ZM23.028 54.4006C23.2847 54.5289 23.4131 54.4005 23.4131 54.0154C23.4131 53.6303 22.8996 53.1168 22.6428 53.1168C22.5145 53.1168 22.1293 53.3735 22.2577 53.3735C22.5145 53.3735 22.7712 53.6303 22.5145 53.6303C22.3861 53.6303 22.2577 54.0154 22.3861 54.2722L22.6428 54.4006H23.028ZM133.434 2.92062C133.305 2.79224 133.177 2.92061 133.049 3.17737L132.92 3.30576L132.664 3.56251C132.278 3.81927 132.022 3.94764 131.893 4.07602C131.893 4.2044 131.893 4.46116 132.15 4.46116H132.278H132.535C132.792 4.33278 133.049 4.07603 133.177 3.94765C133.305 3.81927 133.562 3.04899 133.434 2.92062ZM102.109 16.272C102.238 16.4004 102.366 16.1437 102.366 15.8869C102.366 15.6301 103.65 15.8869 104.035 15.8869L104.42 15.7585C104.42 15.6301 104.163 15.3734 103.907 15.3734C103.65 15.245 102.751 15.3734 102.623 15.5018C102.366 15.6301 102.109 16.1436 102.109 16.272ZM4.66979 62.36C4.54141 61.7181 4.28465 61.4614 4.02789 61.7181C3.77114 62.1033 3.77113 62.8736 4.28465 62.7452L4.66979 62.36ZM129.968 5.35981C130.353 5.35981 130.61 5.23144 130.738 4.97469L130.866 4.8463C131.123 4.58954 131.38 4.46116 130.995 4.2044H130.866C130.609 4.33278 129.968 4.8463 129.582 5.10305H129.069H128.941C128.555 5.23143 129.582 5.35981 129.968 5.35981ZM83.2377 24.3599C82.8526 25.0018 83.1093 25.2585 83.6228 25.1301L83.7512 24.2315C83.7512 24.2315 83.8796 24.2315 83.8796 24.1031V23.9747C83.8796 23.8464 83.7512 23.718 83.4944 23.718L83.2377 24.3599ZM10.9603 67.6236C10.832 67.6236 10.832 67.752 11.0887 67.8803C11.3455 68.0087 11.9874 67.6236 12.2441 67.6236H12.5009C12.7577 67.6236 12.886 67.6236 13.1428 67.4952C13.1428 67.4952 13.2712 67.3668 13.1428 67.2384V67.1101C13.0144 66.9817 12.6293 66.8533 12.2441 66.8533C11.9874 66.7249 11.2171 67.6236 10.9603 67.6236ZM14.0415 65.1844C13.9131 66.3398 13.9131 66.3398 15.4536 66.9817C14.9401 66.3398 14.555 65.8263 14.0415 65.1844Z" fill="#FFBE48"/>
</svg>
