<svg width="210" height="76" viewBox="0 0 210 76" fill="none" xmlns="http://www.w3.org/2000/svg">
<path d="M106.323 47.1145H102.733V39.1985H102.696L101.979 40.7635L98.1115 47.2998H98.0567L94.1901 40.7635L93.4721 39.1985H93.4352V47.115H89.8447V32.1838H92.7905L97.4861 40.1188L98.0571 41.4262H98.094L98.6277 40.1188L103.341 32.1833H106.323V47.1145H106.323Z" fill="#404041"/>
<path d="M126.098 47.097H122.177L120.574 43.8747L120.796 43.5434H113.56L113.78 43.8747L112.215 47.097H108.257L115.676 32.1833H118.714L126.098 47.097ZM119.249 40.7446L118.881 40.4137L117.739 38.0938L117.187 36.5845L116.635 38.0938L115.512 40.4137L115.125 40.7446H119.249Z" fill="#404041"/>
<path d="M143.165 47.097H139.152L137.035 43.1383C136.482 42.1258 135.727 41.6474 134.052 41.6474H131.308L131.621 41.9604V47.0975H128.031V32.1838H135.488C138.507 32.1838 141.416 33.6572 141.416 36.9343C141.416 38.3883 140.256 39.8791 138.967 40.4695V40.5059C139.464 40.7451 140.016 41.2428 140.439 42.0336L143.165 47.097ZM135.489 35.3319H131.29L131.622 35.6633V38.4247L131.29 38.7565H135.286C137.127 38.7565 137.771 37.8362 137.771 37.0624C137.771 36.0499 137.072 35.3319 135.489 35.3319Z" fill="#404041"/>
<path d="M157.527 35.3319H152.188L152.372 35.6632V47.097H148.782V35.6632L148.966 35.3319H143.627V32.1833H157.527V35.3319Z" fill="#404041"/>
<path d="M166.807 47.2809C161.634 47.2809 158.909 44.1508 158.909 39.7137C158.909 35.332 161.634 32 166.807 32C172.017 32 174.724 35.314 174.724 39.7137C174.724 44.1508 171.907 47.2809 166.807 47.2809ZM166.826 35.1665C163.805 35.1665 162.554 37.0261 162.554 39.7137C162.554 42.3466 163.805 44.1144 166.826 44.1144C169.864 44.1144 171.078 42.3471 171.078 39.7137C171.078 37.0814 169.845 35.1665 166.826 35.1665Z" fill="#404041"/>
<path d="M191.479 47.097H188.515L182.291 39.7505L181.021 37.8726H180.984V47.0965H177.394V32.1838H180.358L186.692 39.5846L187.851 41.3156H187.889V32.1833H191.479V47.097Z" fill="#404041"/>
<path d="M198.476 47.097H194.886V32.1838H198.476V47.097Z" fill="#404041"/>
<path d="M23.232 34.593C22.9869 34.9415 22.754 35.2975 22.5252 35.6555C22.518 35.6696 22.5089 35.6836 22.4997 35.6969C22.442 35.7824 22.3865 35.8706 22.331 35.9584C22.3287 35.9629 22.3268 35.9675 22.3242 35.9698C23.0336 36.3418 23.5185 37.0854 23.5185 37.9423C23.5185 39.1713 22.5229 40.1695 21.294 40.1695C20.9269 40.1695 20.5781 40.0791 20.2729 39.9202C20.2707 39.9202 20.2707 39.9202 20.2707 39.9202C20.2456 39.978 20.222 40.0354 20.1992 40.0962C20.132 40.2505 20.0696 40.4051 20.0073 40.5624C18.6674 43.9118 17.9283 47.562 17.9283 51.3856H30.5231C30.5231 47.2569 32.0267 43.4774 34.5104 40.5503C34.5704 40.4811 34.6305 40.4123 34.6928 40.3424C34.8752 40.1323 35.0625 39.9244 35.2563 39.7257C32.2091 36.5747 27.9493 34.604 23.232 34.593ZM19.8082 43.3022C19.8082 42.6179 20.3626 42.0665 21.0466 42.0665C21.728 42.0665 22.2824 42.6179 22.2824 43.3022C22.2824 43.9859 21.728 44.538 21.0466 44.538C20.3626 44.538 19.8082 43.9859 19.8082 43.3022ZM21.8712 48.5941C21.3145 48.5941 20.8661 48.1442 20.8661 47.589C20.8661 47.0354 21.3141 46.5847 21.8712 46.5847C22.4256 46.5847 22.8763 47.0354 22.8763 47.589C22.8763 48.1442 22.4256 48.5941 21.8712 48.5941ZM25.4983 43.5496C24.6319 43.5496 23.9323 42.8466 23.9323 41.9829C23.9323 41.1169 24.6319 40.4169 25.4983 40.4169C26.3647 40.4169 27.0647 41.1169 27.0647 41.9829C27.0643 42.8466 26.3643 43.5496 25.4983 43.5496Z" fill="url(#paint0_linear_3_679)"/>
<path d="M74.6239 51.3848C74.6239 45.1414 72.6524 39.3593 69.3198 34.5938C64.6025 34.604 60.3435 36.5751 57.2963 39.7264C60.2196 42.7493 62.0288 46.8575 62.0288 51.3848H74.6239Z" fill="url(#paint1_linear_3_679)"/>
<path d="M57.2963 24.615C52.4456 26.8095 48.2944 30.2728 45.2727 34.5938C41.9401 39.3594 39.9686 45.1415 39.9686 51.3849H52.5637C52.5637 46.8575 54.3729 42.7494 57.2963 39.7265C60.3439 36.5751 64.6025 34.6041 69.3198 34.5938C66.2985 30.2728 62.1473 26.8095 57.2963 24.615Z" fill="url(#paint2_linear_3_679)"/>
<path d="M45.2727 34.5938C45.5923 34.1366 45.9312 33.6947 46.2759 33.2573C43.3643 29.5599 39.5928 26.5777 35.2555 24.615C30.4044 26.8095 26.2533 30.2728 23.2316 34.5938C27.9489 34.604 32.2079 36.5751 35.2555 39.7264C38.0877 42.6551 39.8683 46.6037 39.9774 50.9638C40.0637 44.8823 42.0157 39.2514 45.2727 34.5938Z" fill="url(#paint3_linear_3_679)"/>
<path d="M69.3225 35.6987L70.0521 35.6972C69.815 35.324 69.5725 34.955 69.3198 34.5933C64.6025 34.6035 60.3435 36.5746 57.2963 39.7259C57.5539 39.9923 57.7998 40.2701 58.0395 40.5528C58.057 40.5334 58.0722 40.5129 58.0905 40.4943C61.0723 37.411 65.0612 35.7082 69.3225 35.6987Z" fill="url(#paint4_linear_3_679)"/>
<path d="M45.2727 34.5938C45.5923 34.1367 45.9312 33.6948 46.2759 33.2574C46.0418 32.9606 45.7933 32.6756 45.5482 32.3879C45.1393 32.8994 44.7433 33.4227 44.3671 33.9611C41.709 37.7608 39.9804 42.0392 39.255 46.5338C39.6825 47.9425 39.939 49.4252 39.9774 50.9639C40.0636 44.8823 42.0157 39.2515 45.2727 34.5938Z" fill="url(#paint5_linear_3_679)"/>
<path d="M23.2314 34.5938C22.9783 34.9555 22.7363 35.3245 22.4991 35.6976L23.2291 35.6992C27.4904 35.7087 31.4793 37.4114 34.4612 40.4948C34.479 40.5134 34.4942 40.5343 34.5121 40.5533C34.7519 40.2706 34.9973 39.9928 35.2554 39.7264C32.2078 36.5751 27.9487 34.604 23.2314 34.5938Z" fill="url(#paint6_linear_3_679)"/>
<path d="M24.0934 38.1479C24.0934 39.6698 22.8553 40.9086 21.3327 40.9086C20.8474 40.9086 20.4017 40.7885 20.0065 40.562C20.0688 40.4047 20.1311 40.2504 20.1984 40.0958C20.2216 40.035 20.2447 39.9776 20.2698 39.9198C20.2789 39.8948 20.2903 39.8685 20.3021 39.8457C20.293 39.8689 20.2816 39.8948 20.2721 39.9198C20.5769 40.0787 20.9257 40.1691 21.2932 40.1691C22.5221 40.1691 23.5177 39.1709 23.5177 37.9419C23.5177 37.0851 23.0328 36.3414 22.3233 35.9694C22.3233 35.9671 22.3214 35.9694 22.3214 35.9694C22.3233 35.9644 22.326 35.9603 22.3302 35.958C22.3902 35.8565 22.4552 35.7547 22.5198 35.6528C22.5221 35.6528 22.5221 35.6551 22.5244 35.6551C22.5521 35.6692 22.5776 35.6806 22.6026 35.6965C23.4884 36.1567 24.0934 37.0809 24.0934 38.1479Z" fill="url(#paint7_linear_3_679)"/>
<path d="M20.3035 39.8457C20.2941 39.8692 20.2823 39.8954 20.2725 39.9208C20.2701 39.9208 20.2701 39.9208 20.2701 39.9208C20.2799 39.8954 20.2913 39.8692 20.3035 39.8457Z" fill="white"/>
<path d="M14.4528 45.3842C15.4365 45.3842 16.2339 44.5867 16.2339 43.6031C16.2339 42.6194 15.4365 41.822 14.4528 41.822C13.4692 41.822 12.6718 42.6194 12.6718 43.6031C12.6718 44.5867 13.4692 45.3842 14.4528 45.3842Z" fill="url(#paint8_linear_3_679)"/>
<path d="M12.4304 39.7006C13.2954 39.7006 13.9967 38.9993 13.9967 38.1342C13.9967 37.2692 13.2954 36.5679 12.4304 36.5679C11.5653 36.5679 10.864 37.2692 10.864 38.1342C10.864 38.9993 11.5653 39.7006 12.4304 39.7006Z" fill="url(#paint9_linear_3_679)"/>
<path d="M17.012 40.1252C17.6952 40.1252 18.2489 39.5714 18.2489 38.8883C18.2489 38.2051 17.6952 37.6514 17.012 37.6514C16.3289 37.6514 15.7751 38.2051 15.7751 38.8883C15.7751 39.5714 16.3289 40.1252 17.012 40.1252Z" fill="url(#paint10_linear_3_679)"/>
<path d="M18.1395 35.6757C18.6946 35.6757 19.1446 35.2257 19.1446 34.6706C19.1446 34.1155 18.6946 33.6655 18.1395 33.6655C17.5844 33.6655 17.1344 34.1155 17.1344 34.6706C17.1344 35.2257 17.5844 35.6757 18.1395 35.6757Z" fill="url(#paint11_linear_3_679)"/>
<defs>
<linearGradient id="paint0_linear_3_679" x1="29.7921" y1="31.6151" x2="25.0837" y2="49.3093" gradientUnits="userSpaceOnUse">
<stop stop-color="#A5CD39"/>
<stop offset="1" stop-color="#009345"/>
</linearGradient>
<linearGradient id="paint1_linear_3_679" x1="62.3265" y1="27.7499" x2="67.5209" y2="50.8772" gradientUnits="userSpaceOnUse">
<stop stop-color="#FCB940"/>
<stop offset="1" stop-color="#EE4036"/>
</linearGradient>
<linearGradient id="paint2_linear_3_679" x1="57.9502" y1="22.5584" x2="53.6215" y2="47.6648" gradientUnits="userSpaceOnUse">
<stop stop-color="#00ADE5"/>
<stop offset="1" stop-color="#223C8C"/>
</linearGradient>
<linearGradient id="paint3_linear_3_679" x1="34.8649" y1="23.5707" x2="34.7148" y2="37.5266" gradientUnits="userSpaceOnUse">
<stop stop-color="#652D90"/>
<stop offset="1" stop-color="#B31E8D"/>
</linearGradient>
<linearGradient id="paint4_linear_3_679" x1="62.4622" y1="29.7999" x2="63.943" y2="39.465" gradientUnits="userSpaceOnUse">
<stop stop-color="#FCB940"/>
<stop offset="1" stop-color="#EE4036"/>
</linearGradient>
<linearGradient id="paint5_linear_3_679" x1="41.8988" y1="28.9609" x2="43.3619" y2="47.4183" gradientUnits="userSpaceOnUse">
<stop stop-color="#652D90"/>
<stop offset="1" stop-color="#B31E8D"/>
</linearGradient>
<linearGradient id="paint6_linear_3_679" x1="35.3069" y1="29.6816" x2="28.5538" y2="38.0104" gradientUnits="userSpaceOnUse">
<stop stop-color="#A5CD39"/>
<stop offset="1" stop-color="#009345"/>
</linearGradient>
<linearGradient id="paint7_linear_3_679" x1="25.5337" y1="35.4518" x2="20.2563" y2="40.3169" gradientUnits="userSpaceOnUse">
<stop stop-color="#A5CD39"/>
<stop offset="1" stop-color="#009345"/>
</linearGradient>
<linearGradient id="paint8_linear_3_679" x1="11.0564" y1="34.3035" x2="16.2506" y2="48.5255" gradientUnits="userSpaceOnUse">
<stop stop-color="#A5CD39"/>
<stop offset="1" stop-color="#009345"/>
</linearGradient>
<linearGradient id="paint9_linear_3_679" x1="11.0341" y1="34.3118" x2="16.2279" y2="48.5329" gradientUnits="userSpaceOnUse">
<stop stop-color="#A5CD39"/>
<stop offset="1" stop-color="#009345"/>
</linearGradient>
<linearGradient id="paint10_linear_3_679" x1="14.8343" y1="32.9251" x2="20.0276" y2="47.1447" gradientUnits="userSpaceOnUse">
<stop stop-color="#A5CD39"/>
<stop offset="1" stop-color="#009345"/>
</linearGradient>
<linearGradient id="paint11_linear_3_679" x1="17.1878" y1="32.0636" x2="22.3824" y2="46.2871" gradientUnits="userSpaceOnUse">
<stop stop-color="#A5CD39"/>
<stop offset="1" stop-color="#009345"/>
</linearGradient>
</defs>
</svg>
