<svg width="284" height="76" viewBox="0 0 284 76" fill="none" xmlns="http://www.w3.org/2000/svg">
<path d="M115.5 31.168C117.371 31.168 118.802 31.5115 119.794 32.1974C120.786 32.8837 121.282 33.9313 121.282 35.3411C121.282 37.1001 120.415 38.2918 118.681 38.9154C118.918 39.2027 119.186 39.5519 119.485 39.9634C119.785 40.375 120.09 40.8211 120.402 41.3014C120.714 41.7817 121.013 42.275 121.301 42.78C121.588 43.2854 121.844 43.7809 122.068 44.2681H119.43C119.192 43.8189 118.937 43.3667 118.662 42.9111C118.388 42.4562 118.11 42.0132 117.829 41.5826C117.549 41.1521 117.271 40.747 116.997 40.3663C116.722 39.9859 116.466 39.6458 116.23 39.3463C116.055 39.3585 115.905 39.3649 115.78 39.3649C115.655 39.3649 115.537 39.3649 115.425 39.3649H114.283V44.2681H111.925V31.4864C112.499 31.3618 113.11 31.2774 113.759 31.2337C114.408 31.19 114.988 31.168 115.5 31.168ZM115.668 33.2078C115.169 33.2078 114.707 33.2268 114.283 33.264V37.4554H115.312C115.886 37.4554 116.391 37.4247 116.828 37.3623C117.265 37.3 117.629 37.1875 117.923 37.0249C118.216 36.863 118.438 36.6445 118.587 36.3698C118.737 36.0958 118.812 35.7462 118.812 35.3217C118.812 34.9227 118.737 34.5857 118.587 34.3113C118.438 34.037 118.223 33.8188 117.942 33.6562C117.661 33.4943 117.327 33.3792 116.941 33.3104C116.554 33.242 116.13 33.2078 115.668 33.2078Z" fill="#404041"/>
<path d="M123.902 44.2677V31.2991H132.23V33.3017H126.26V36.5017H131.575V38.467H126.26V42.2659H132.679V44.2681H123.902V44.2677Z" fill="#404041"/>
<path d="M143.776 44.2677C143.601 43.7563 143.42 43.2512 143.232 42.7519C143.044 42.2526 142.863 41.7411 142.688 41.2171H137.21C137.035 41.7411 136.856 42.256 136.675 42.761C136.494 43.2664 136.316 43.7688 136.14 44.2674H133.688C134.174 42.8823 134.636 41.6039 135.072 40.4309C135.508 39.2586 135.935 38.1478 136.352 37.0998C136.77 36.0518 137.184 35.0543 137.596 34.1054C138.007 33.1577 138.431 32.2217 138.868 31.2983H141.118C141.555 32.2217 141.979 33.1577 142.391 34.1054C142.803 35.0543 143.217 36.0518 143.635 37.0998C144.054 38.1478 144.484 39.2586 144.927 40.4309C145.369 41.6039 145.835 42.8823 146.321 44.2674H143.776V44.2677ZM139.949 33.8067C139.662 34.4679 139.335 35.2724 138.967 36.2209C138.599 37.169 138.215 38.1984 137.816 39.3087H142.083C141.683 38.1984 141.297 37.1629 140.922 36.2022C140.548 35.2416 140.223 34.4428 139.949 33.8067Z" fill="#404041"/>
<path d="M156.146 42.2275V44.2677H147.949V31.2991H150.307V42.2279H156.146V42.2275Z" fill="#404041"/>
<path d="M162.302 44.2677V31.2991H170.63V33.3017H164.66V36.5017H169.975V38.467H164.66V42.2659H171.079V44.2681H162.302V44.2677Z" fill="#404041"/>
<path d="M176.412 42.5087C177.261 42.5087 177.878 42.3654 178.265 42.0781C178.651 41.7912 178.845 41.3862 178.845 40.8618C178.845 40.5505 178.78 40.2819 178.648 40.0573C178.517 39.8327 178.33 39.6302 178.086 39.4489C177.844 39.268 177.547 39.0997 177.198 38.9435C176.848 38.7877 176.449 38.635 176.001 38.4849C175.551 38.3234 175.118 38.1451 174.7 37.9521C174.282 37.7591 173.914 37.5185 173.596 37.2316C173.277 36.9451 173.022 36.602 172.828 36.2026C172.634 35.8032 172.538 35.3229 172.538 34.7612C172.538 33.5889 172.943 32.6686 173.754 32.0013C174.565 31.3336 175.67 31 177.067 31C177.878 31 178.598 31.0904 179.228 31.2713C179.858 31.4526 180.354 31.6487 180.716 31.8607L179.986 33.7694C179.561 33.5323 179.097 33.3514 178.591 33.2268C178.086 33.1022 177.566 33.0395 177.029 33.0395C176.393 33.0395 175.897 33.1706 175.541 33.4324C175.186 33.6946 175.008 34.0624 175.008 34.5363C175.008 34.8236 175.067 35.0698 175.186 35.2754C175.305 35.4817 175.473 35.6653 175.691 35.8275C175.909 35.9902 176.165 36.1395 176.459 36.2767C176.752 36.4142 177.073 36.5453 177.422 36.6696C178.033 36.8946 178.58 37.1218 179.06 37.3528C179.54 37.5839 179.946 37.8582 180.277 38.1759C180.607 38.4944 180.859 38.8687 181.034 39.2988C181.209 39.7294 181.296 40.2507 181.296 40.8614C181.296 42.0344 180.881 42.9423 180.052 43.5841C179.222 44.2274 178.008 44.5481 176.412 44.5481C175.875 44.5481 175.386 44.5139 174.943 44.4452C174.5 44.3768 174.107 44.2924 173.764 44.1928C173.421 44.0933 173.124 43.9903 172.875 43.8839C172.625 43.7786 172.425 43.6814 172.276 43.594L172.968 41.6666C173.305 41.8536 173.761 42.0405 174.335 42.2279C174.909 42.4152 175.601 42.5087 176.412 42.5087Z" fill="#404041"/>
<path d="M192.412 31.2991V33.3389H188.426V44.2677H186.05V33.3389H182.064V31.2991H192.412Z" fill="#404041"/>
<path d="M201.769 44.2677C201.594 43.7563 201.413 43.2512 201.225 42.7519C201.037 42.2526 200.856 41.7411 200.681 41.2171H195.202C195.028 41.7411 194.849 42.256 194.668 42.761C194.487 43.2664 194.308 43.7688 194.134 44.2674H191.681C192.168 42.8823 192.629 41.6039 193.065 40.4309C193.502 39.2586 193.928 38.1478 194.346 37.0998C194.764 36.0518 195.178 35.0543 195.589 34.1054C196 33.1577 196.424 32.2217 196.861 31.2983H199.112C199.549 32.2217 199.973 33.1577 200.384 34.1054C200.796 35.0543 201.211 36.0518 201.629 37.0998C202.047 38.1478 202.478 39.2586 202.921 40.4309C203.363 41.6039 203.828 42.8823 204.314 44.2674H201.769V44.2677ZM197.942 33.8067C197.655 34.4679 197.327 35.2724 196.96 36.2209C196.591 37.169 196.208 38.1984 195.809 39.3087H200.076C199.676 38.1984 199.289 37.1629 198.915 36.2022C198.541 35.2416 198.217 34.4428 197.942 33.8067Z" fill="#404041"/>
<path d="M213.914 31.2991V33.3389H209.928V44.2677H207.551V33.3389H203.566V31.2991H213.914Z" fill="#404041"/>
<path d="M215.711 44.2677V31.2991H224.039V33.3017H218.069V36.5017H223.383V38.467H218.069V42.2659H224.488V44.2681H215.711V44.2677Z" fill="#404041"/>
<path d="M59.8516 25.9955V51.006L80.5403 62.5097V55.9863V27.9753L73.4012 34.5942V52.0476L71.6882 51.1147V35.9789L67.2779 39.8936V48.7115L65.5014 47.7444V29.2574L81.5112 20.0139V13.4905L59.8516 25.9955Z" fill="#25A9E0"/>
<path d="M81.5111 13.4905V20.0139L97.5213 29.2574V47.7444L95.7448 48.7115V39.8936L91.3341 35.9789V51.1147L89.6214 52.0476V34.5942L82.482 27.9753V55.9863V62.5097L103.171 51.006V25.9955L81.5111 13.4905Z" fill="#1B75BB"/>
</svg>
