<svg width="40" height="40" viewBox="0 0 40 40" fill="none" xmlns="http://www.w3.org/2000/svg">
<g clip-path="url(#clip0_3_474)">
<rect opacity="0.1" width="40" height="40" rx="20" fill="white"/>
<path opacity="0.6" d="M20.3334 16.7397C18.3334 16.7397 16.7396 18.3647 16.7396 20.3335C16.7396 22.3335 18.3334 23.9272 20.3334 23.9272C22.3021 23.9272 23.9271 22.3335 23.9271 20.3335C23.9271 18.3647 22.3021 16.7397 20.3334 16.7397ZM20.3334 22.6772C19.0521 22.6772 17.9896 21.646 17.9896 20.3335C17.9896 19.0522 19.0209 18.021 20.3334 18.021C21.6146 18.021 22.6459 19.0522 22.6459 20.3335C22.6459 21.646 21.6146 22.6772 20.3334 22.6772ZM24.8959 16.6147C24.8959 16.146 24.5209 15.771 24.0521 15.771C23.5834 15.771 23.2084 16.146 23.2084 16.6147C23.2084 17.0835 23.5834 17.4585 24.0521 17.4585C24.5209 17.4585 24.8959 17.0835 24.8959 16.6147ZM27.2709 17.4585C27.2084 16.3335 26.9584 15.3335 26.1459 14.521C25.3334 13.7085 24.3334 13.4585 23.2084 13.396C22.0521 13.3335 18.5834 13.3335 17.4271 13.396C16.3021 13.4585 15.3334 13.7085 14.4896 14.521C13.6771 15.3335 13.4271 16.3335 13.3646 17.4585C13.3021 18.6147 13.3021 22.0835 13.3646 23.2397C13.4271 24.3647 13.6771 25.3335 14.4896 26.1772C15.3334 26.9897 16.3021 27.2397 17.4271 27.3022C18.5834 27.3647 22.0521 27.3647 23.2084 27.3022C24.3334 27.2397 25.3334 26.9897 26.1459 26.1772C26.9584 25.3335 27.2084 24.3647 27.2709 23.2397C27.3334 22.0835 27.3334 18.6147 27.2709 17.4585ZM25.7709 24.4585C25.5521 25.0835 25.0521 25.5522 24.4584 25.8022C23.5209 26.1772 21.3334 26.0835 20.3334 26.0835C19.3021 26.0835 17.1146 26.1772 16.2084 25.8022C15.5834 25.5522 15.1146 25.0835 14.8646 24.4585C14.4896 23.5522 14.5834 21.3647 14.5834 20.3335C14.5834 19.3335 14.4896 17.146 14.8646 16.2085C15.1146 15.6147 15.5834 15.146 16.2084 14.896C17.1146 14.521 19.3021 14.6147 20.3334 14.6147C21.3334 14.6147 23.5209 14.521 24.4584 14.896C25.0521 15.1147 25.5209 15.6147 25.7709 16.2085C26.1459 17.146 26.0521 19.3335 26.0521 20.3335C26.0521 21.3647 26.1459 23.5522 25.7709 24.4585Z" fill="white"/>
</g>
<defs>
<clipPath id="clip0_3_474">
<rect width="40" height="40" fill="white"/>
</clipPath>
</defs>
</svg>
