<svg width="93" height="42" viewBox="0 0 93 42" fill="none" xmlns="http://www.w3.org/2000/svg">
<path d="M69.8409 12.0275C76.3506 8.96459 80.8811 5.61327 87.677 0.586288C89.9423 -1.08937 91.6352 1.16304 91.349 3.12708C90.7766 7.05515 92.4695 9.30757 91.8972 13.2357C91.3248 17.1637 93.0177 19.4162 92.4453 23.3442C92.1592 25.3083 90.1801 25.0199 88.4871 22.7675C86.7942 20.5151 87.3666 16.587 87.939 12.6589L88.2252 10.6949C87.939 12.6589 87.6528 14.6229 85.3875 16.2986C82.836 19.9383 79.9984 25.542 77.4469 29.1817C70.3649 36.1728 61.5899 40.9114 51.4082 41.4335C41.2265 41.9557 29.9243 36.2973 22.5803 31.2157C18.9083 28.6749 13.5433 23.8817 10.1575 19.3769C8.46459 17.1244 6.77167 14.872 5.07876 12.6196C3.38584 10.3672 1.69292 8.11476 3.83892e-06 5.86235C0.286188 3.89831 0.572378 1.93428 2.26529 4.1867C3.95821 6.43912 5.65113 8.69153 7.63023 8.97991C9.32315 11.2323 11.0161 13.4848 12.709 15.7372C16.0948 20.242 19.7668 22.7828 23.4388 25.3236C28.5176 32.0809 38.1269 35.4868 48.0224 36.9287C58.2041 36.4065 66.6929 33.632 71.7958 26.3526C74.3473 22.7129 76.8987 19.0732 79.4502 15.4335C79.7364 13.4694 80.0226 11.5054 82.0017 11.7938C79.7364 13.4694 75.2058 16.8208 72.9405 18.4964C68.9823 17.9197 67.5756 13.7032 69.8409 12.0275Z" fill="white"/>
</svg>
