<svg width="40" height="40" viewBox="0 0 40 40" fill="none" xmlns="http://www.w3.org/2000/svg">
<g clip-path="url(#clip0_3_479)">
<rect opacity="0.1" width="40" height="40" rx="20" fill="white"/>
<path opacity="0.6" d="M26.3334 13.3335H14.3021C13.7709 13.3335 13.3334 13.8022 13.3334 14.3647V26.3335C13.3334 26.896 13.7709 27.3335 14.3021 27.3335H26.3334C26.8646 27.3335 27.3334 26.896 27.3334 26.3335V14.3647C27.3334 13.8022 26.8646 13.3335 26.3334 13.3335ZM17.5521 25.3335H15.4896V18.6772H17.5521V25.3335ZM16.5209 17.7397C15.8334 17.7397 15.3021 17.2085 15.3021 16.5522C15.3021 15.896 15.8334 15.3335 16.5209 15.3335C17.1771 15.3335 17.7084 15.896 17.7084 16.5522C17.7084 17.2085 17.1771 17.7397 16.5209 17.7397ZM25.3334 25.3335H23.2396V22.0835C23.2396 21.3335 23.2396 20.3335 22.1771 20.3335C21.0834 20.3335 20.9271 21.1772 20.9271 22.0522V25.3335H18.8646V18.6772H20.8334V19.5835H20.8646C21.1459 19.0522 21.8334 18.4897 22.8334 18.4897C24.9271 18.4897 25.3334 19.896 25.3334 21.6772V25.3335Z" fill="white"/>
</g>
<defs>
<clipPath id="clip0_3_479">
<rect width="40" height="40" fill="white"/>
</clipPath>
</defs>
</svg>
