<svg width="42" height="40" viewBox="0 0 42 40" fill="none" xmlns="http://www.w3.org/2000/svg">
<g clip-path="url(#clip0_3_464)">
<rect opacity="0.1" width="42" height="40" rx="20" fill="white"/>
<path opacity="0.6" d="M28.9584 20.521C28.9584 20.021 28.8959 19.646 28.8334 19.2397H21.4584V21.896H25.8334C25.6771 23.0522 24.5209 25.2397 21.4584 25.2397C18.8021 25.2397 16.6459 23.0522 16.6459 20.3335C16.6459 15.9897 21.7709 13.9897 24.5209 16.646L26.6459 14.6147C25.3021 13.3647 23.5209 12.5835 21.4584 12.5835C17.1459 12.5835 13.7084 16.0522 13.7084 20.3335C13.7084 24.646 17.1459 28.0835 21.4584 28.0835C25.9271 28.0835 28.9584 24.9585 28.9584 20.521Z" fill="white"/>
</g>
<defs>
<clipPath id="clip0_3_464">
<rect width="42" height="40" fill="white"/>
</clipPath>
</defs>
</svg>
