<svg width="74" height="42" viewBox="0 0 74 42" fill="none" xmlns="http://www.w3.org/2000/svg">
<path fill-rule="evenodd" clip-rule="evenodd" d="M14.2387 39.0326L15.5147 41.3719L16.7878 39.0384C16.374 39.0843 15.9602 39.116 15.5492 39.116C15.1181 39.116 14.6756 39.0843 14.2387 39.0326ZM10.6694 32.5004L13.641 37.9405C13.7473 37.9607 13.8594 37.9779 13.9657 37.9923C14.4945 38.0699 15.0319 38.1187 15.5521 38.1187C16.0723 38.1187 16.6125 38.0699 17.1413 37.9923C17.2218 37.9808 17.3023 37.9635 17.3856 37.952L20.3543 32.5147C20.1905 32.5349 20.0238 32.5464 19.837 32.5464C18.561 32.5464 17.8828 32.0176 17.2103 31.4859C16.7534 31.1324 16.2964 30.7732 15.5578 30.7732C14.8193 30.7732 14.3652 31.1324 13.9054 31.4859C13.2329 32.0176 12.5547 32.5464 11.2787 32.5464C11.0574 32.5464 10.8591 32.532 10.6694 32.5004Z" fill="white"/>
<path fill-rule="evenodd" clip-rule="evenodd" d="M15.5515 12.7742H15.5601C19.0202 12.777 22.1642 14.1938 24.4431 16.4728C26.7135 18.746 28.1245 21.8814 28.1303 25.3357V25.3558V25.3645C28.1274 28.8217 26.7106 31.9685 24.4316 34.2475C23.0091 35.6672 21.2474 36.7506 19.2817 37.3656L21.0692 34.009C21.6986 33.6066 22.282 33.1411 22.8079 32.6152C24.6673 30.7587 25.8226 28.1895 25.8254 25.3645V25.3558V25.3357C25.8226 22.5136 24.6644 19.9501 22.8108 18.0936C20.9543 16.2343 18.3879 15.079 15.5601 15.079H15.5515H15.5313C12.715 15.0819 10.1544 16.2371 8.29788 18.0936H8.29214C6.43276 19.9501 5.28035 22.5194 5.27748 25.3472V25.3558V25.376C5.28322 28.1952 6.43276 30.7558 8.29214 32.6152C8.77207 33.0951 9.30085 33.5233 9.867 33.9026L11.6833 37.3196C9.77216 36.6989 8.05073 35.6298 6.65979 34.236C4.38659 31.9628 2.97553 28.8246 2.97266 25.376V25.3558V25.3472C2.97553 21.8871 4.38946 18.7431 6.66842 16.4642L6.66554 16.4613C8.93875 14.1881 12.0799 12.7799 15.5313 12.7742" fill="white"/>
<path fill-rule="evenodd" clip-rule="evenodd" d="M9.63599 13.1335C13.5818 11.0902 17.5189 11.2109 21.4705 13.1335C21.4705 11.2195 21.4705 9.40321 21.4705 7.48348C18.6225 4.10672 12.2454 4.26478 9.63599 7.48348C9.63599 9.07846 9.63599 11.5356 9.63599 13.1335ZM6.02932 9.00949V8.16746V4.04349V3.41987C6.02932 3.22732 6.17301 3.06351 6.36556 3.04052L9.25089 2.67555L15.5504 0L31.1036 6.60409L22.5022 8.83419V7.33692L22.3843 7.01505C22.0998 6.67593 21.7722 6.35981 21.4216 6.0753C19.7864 4.75333 17.5908 4.12109 15.4297 4.1412C13.2656 4.1642 11.116 4.8453 9.58138 6.13852C9.26526 6.40579 8.97213 6.70467 8.70774 7.02654L8.59566 7.33692V8.83419L6.79089 8.36575V9.00949C6.96619 9.13307 7.08402 9.33423 7.08402 9.56701C7.08402 9.81704 6.94607 10.0326 6.74778 10.1504C6.85124 10.2021 6.95182 10.274 7.04091 10.3717L7.27369 12.5702C7.04091 12.7599 6.73916 12.8748 6.41154 12.8748C6.08392 12.8748 5.78504 12.7599 5.54364 12.5702L5.77642 10.3717C5.86551 10.274 5.96609 10.1993 6.06955 10.1504C5.86838 10.0326 5.73619 9.81704 5.73619 9.56701C5.73331 9.33423 5.85114 9.13019 6.02932 9.00949ZM0 6.60409L5.262 4.36824V7.96629L0 6.60409Z" fill="#FFBE48"/>
<path fill-rule="evenodd" clip-rule="evenodd" d="M20.7556 29.5059V13.99H17.2811V28.934C17.5139 29.069 17.7266 29.2213 17.9392 29.3765C18.3531 29.6754 18.7669 29.9772 19.4365 29.9772C20.0113 29.9772 20.3935 29.7559 20.7556 29.5059ZM13.8268 29.707V14.7631H10.3523V30.2789C10.7115 30.5289 11.0966 30.7531 11.6743 30.7531C12.341 30.7531 12.7548 30.4513 13.1687 30.1496C13.3813 29.9973 13.5911 29.8421 13.8268 29.707Z" fill="white"/>
<path d="M46.6344 14.6396H35.0586V35.6207H46.6344V32.8172H38.4951V26.3963H45.73V23.5928H38.4951V17.4432H46.6344V14.6396Z" fill="white"/>
<path d="M65.9096 19.0107H62.4731V28.2653C62.4731 31.31 60.8151 32.8775 58.2829 32.8775C55.7808 32.8775 54.1229 31.31 54.1229 28.2653V19.0107H50.7164V28.7778C50.7164 33.4201 53.6707 35.8619 57.5594 35.8619C59.5189 35.8619 61.3879 35.048 62.4731 33.6311V35.6207H65.9096V19.0107Z" fill="white"/>
<path d="M74.001 33.6311C74.001 32.3952 73.0364 31.4305 71.8306 31.4305C70.5946 31.4305 69.63 32.3952 69.63 33.6311C69.63 34.8671 70.5946 35.8317 71.8306 35.8317C73.0364 35.8317 74.001 34.8671 74.001 33.6311Z" fill="white"/>
</svg>
